<svg viewBox="0 0 184 366" fill="none" xmlns="http://www.w3.org/2000/svg">
  <path fill-rule="evenodd" clip-rule="evenodd" d="M123.109 157.918C123.953 160.895 124.68 163.457 125.031 165.223C125.031 165.223 128.353 183.414 129.677 198.015C130.346 205.387 129.155 216.333 128.068 226.325C127.002 236.123 126.036 245.003 127.021 248.693C129.011 256.145 131.17 269.95 131.17 280.881C131.17 291.811 127.519 320.735 127.519 320.735C127.44 321.796 127.24 322.795 127.032 323.835C126.362 327.181 125.606 330.96 128.514 338.621C129.903 342.282 131.167 346.405 131.499 348.061C131.509 348.263 131.52 348.469 131.532 348.679C131.71 351.923 131.943 356.152 128.514 359.985C124.863 364.067 123.707 364.847 122.354 365.633C121.001 366.42 117.736 365.841 116.741 364.847C115.746 363.853 112.922 358.602 112.593 357.501C112.519 357.253 112.402 356.934 112.265 356.562C111.798 355.287 111.1 353.386 111.1 351.539L110.603 337.131L111.1 317.15C110.972 315.555 110.234 312.206 109.334 308.116C107.93 301.74 106.131 293.566 105.627 287.447C105.157 281.73 105.599 276.37 105.975 271.805C106.26 268.349 106.508 265.349 106.293 262.995L100.155 227.329C99.7566 224.546 98.9937 219.876 98.6621 217.889C98.1645 214.08 97.07 205.865 96.6719 203.48C96.5575 202.795 96.4694 202.161 96.3894 201.587C96.1218 199.664 95.9455 198.398 95.1794 198.015C94.3833 197.618 93.5209 197.518 93.1892 197.518H90.8108C90.4791 197.518 89.6167 197.618 88.8206 198.015C88.0545 198.398 87.8782 199.664 87.6106 201.587C87.5306 202.161 87.4425 202.795 87.3281 203.48C86.93 205.865 85.8355 214.08 85.3379 217.889C85.0063 219.876 84.2434 224.546 83.8454 227.329L77.7067 262.995C77.4924 265.349 77.7398 268.349 78.0247 271.805C78.4011 276.37 78.8431 281.73 78.3725 287.447C77.8688 293.566 76.0695 301.74 74.6659 308.116C73.7658 312.206 73.0284 315.555 72.8997 317.15L73.3972 337.131L72.8997 351.539C72.8997 353.386 72.2023 355.287 71.7346 356.562C71.5983 356.934 71.4815 357.253 71.4071 357.501C71.0779 358.602 68.2537 363.853 67.2586 364.847C66.2636 365.841 62.9992 366.42 61.6462 365.633C60.2932 364.847 59.1371 364.067 55.4862 359.985C52.0572 356.152 52.2897 351.923 52.468 348.679C52.4796 348.469 52.4909 348.263 52.501 348.061C52.8327 346.405 54.0968 342.282 55.4862 338.621C58.3938 330.96 57.6377 327.181 56.9681 323.835C56.7598 322.795 56.5599 321.796 56.4812 320.735C56.4812 320.735 52.8303 291.811 52.8303 280.881C52.8303 269.95 54.9886 256.145 56.9788 248.693C57.9641 245.003 56.998 236.123 55.9321 226.325C54.8451 216.333 53.6542 205.387 54.3229 198.015C55.6472 183.414 58.9689 165.223 58.9689 165.223C59.3199 163.457 60.0469 160.895 60.8915 157.918C62.8487 151.021 65.4368 141.901 65.4368 135.306C65.4368 125.866 63.4467 104.974 63.4467 104.974C61.7912 108.281 59.0269 120.94 57.0742 129.883C56.0927 134.378 55.3161 137.934 54.9887 138.891C54.4811 140.374 53.5192 142.106 52.695 143.59C52.2114 144.461 51.7752 145.247 51.506 145.847C49.35 150.649 43.6976 158.408 37.3292 163.973C33.9002 166.969 32.2543 169.066 31.5283 172.123C32.9291 176.123 31.5283 180.519 29.7697 183.414C28.011 186.31 24.4711 189.959 24.4711 189.959C20.0789 194.43 15.1437 196.009 13.1962 196.418C11.2487 196.826 9.56413 195.953 8.55019 194.927C7.53624 193.902 6.06255 191.946 6.56007 190.952C6.6803 190.712 6.8492 190.357 7.08289 189.865C7.6599 188.652 8.63184 186.607 10.2411 183.414C12.655 178.625 12.235 177.107 11.9745 176.165L11.9629 176.123C11.68 175.097 10.1333 176.177 8.39406 177.391C7.07411 178.312 5.6433 179.311 4.56996 179.525C2.08234 180.022 -1.40041 178.531 0.589722 177.041C2.57983 175.55 13.1962 168.204 13.1962 168.204C13.7682 168.003 14.3405 167.585 14.9951 167.107C16.221 166.212 17.7359 165.105 20.0789 164.814C21.2454 162.952 22.5149 160.43 23.6418 158.19C24.4569 156.57 25.1974 155.099 25.7706 154.133C26.3347 153.182 27.5694 149.719 29.0117 145.674C31.0608 139.928 33.5287 133.006 35.0875 130.444C35.4268 129.585 35.9587 128.532 36.4786 127.503C37.2258 126.024 37.9482 124.594 38.0385 123.858C38.0701 123.6 38.1053 123.315 38.1436 123.004C38.5448 119.752 39.2867 113.735 39.8945 107.483C40.0422 106.598 40.1776 105.72 40.347 104.621C40.7483 102.017 41.3407 98.1743 42.7401 90.069C44.7302 78.5423 47.6916 73.6561 51.0084 71.5031C53.9936 69.5654 58.9689 67.5284 65.4368 67.0315C71.4717 66.5679 78.0384 64.4234 80.1944 63.2642L82.5424 53.3273C71.4071 44.3841 67.8249 21.7281 73.3972 10.5989C77.7797 1.84603 85.8493 -0.222525 92 0.0182497C98.1507 -0.222525 106.22 1.84603 110.603 10.5989C116.175 21.7281 112.593 44.3841 101.458 53.3273L103.806 63.2642C105.962 64.4234 112.528 66.5679 118.563 67.0315C125.031 67.5284 130.006 69.5654 132.992 71.5031C136.308 73.6561 139.27 78.5423 141.26 90.069C142.659 98.1743 143.252 102.017 143.653 104.621C143.822 105.72 143.958 106.598 144.105 107.483C144.713 113.736 145.455 119.753 145.856 123.005C145.895 123.315 145.93 123.6 145.962 123.858C146.052 124.594 146.774 126.024 147.521 127.503C148.041 128.532 148.573 129.585 148.912 130.444C150.471 133.006 152.939 139.928 154.988 145.674C156.431 149.719 157.665 153.182 158.229 154.133C158.803 155.099 159.543 156.57 160.358 158.19C161.485 160.43 162.755 162.952 163.921 164.814C166.264 165.105 167.779 166.212 169.005 167.107C169.66 167.585 170.232 168.003 170.804 168.204C170.804 168.204 181.42 175.55 183.41 177.041C185.4 178.531 181.918 180.022 179.43 179.525C178.357 179.311 176.926 178.312 175.606 177.391C173.867 176.177 172.32 175.097 172.037 176.123L172.025 176.165C171.765 177.107 171.345 178.625 173.759 183.414C175.368 186.607 176.34 188.652 176.917 189.865C177.151 190.357 177.32 190.712 177.44 190.952C177.937 191.946 176.464 193.902 175.45 194.927C174.436 195.953 172.751 196.826 170.804 196.418C168.856 196.009 163.921 194.43 159.529 189.959C159.529 189.959 155.989 186.31 154.23 183.414C152.472 180.519 151.071 176.123 152.472 172.123C151.746 169.066 150.1 166.969 146.671 163.973C140.302 158.408 134.65 150.649 132.494 145.847C132.225 145.247 131.789 144.461 131.305 143.59C130.481 142.106 129.519 140.374 129.011 138.891C128.684 137.934 127.907 134.378 126.926 129.883C124.973 120.94 122.209 108.281 120.553 104.974C120.553 104.974 118.563 125.866 118.563 135.306C118.563 141.901 121.151 151.021 123.109 157.918Z" fill="currentColor"/>
</svg>
