<svg width="16" height="16" viewBox="0 0 16 16" fill="none" xmlns="http://www.w3.org/2000/svg">
<circle cx="8" cy="8" r="7.15" stroke="#AFB2B6" stroke-width="1.2"/>
<path d="M5.14607 11.1513C4.99215 11.0086 4.95987 10.8758 5.04925 10.7528L5.3844 10.2878C5.49363 10.1402 5.655 10.1476 5.8685 10.31C6.16144 10.5314 6.48666 10.7085 6.84415 10.8413C7.20661 10.9742 7.61872 11.0406 8.08048 11.0406C8.35357 11.0406 8.59686 11.0086 8.81036 10.9446C9.02386 10.8758 9.21006 10.7503 9.36894 10.5683C9.53279 10.3862 9.61472 10.1427 9.61472 9.83764C9.61472 9.66052 9.575 9.49323 9.49555 9.33579C9.42108 9.17835 9.30191 9.05289 9.13806 8.95941C8.97918 8.86101 8.82277 8.78475 8.66885 8.73063C8.41563 8.63715 8.16241 8.56089 7.90918 8.50184C7.66092 8.43788 7.33322 8.34194 6.92608 8.21402C6.653 8.13038 6.39481 8.0123 6.15151 7.85978C5.90822 7.70234 5.69472 7.49077 5.51101 7.22509C5.33226 6.95941 5.24289 6.59287 5.24289 6.12546C5.24289 5.64822 5.38936 5.23739 5.68231 4.89299C5.97525 4.54859 6.34267 4.31488 6.78457 4.19188C7.22647 4.06396 7.65596 4 8.07303 4C8.68871 4 9.18275 4.07134 9.55514 4.21402C9.93249 4.35178 10.2577 4.51661 10.5308 4.70849C10.6897 4.82165 10.712 4.95203 10.5978 5.09963L10.2627 5.54244C10.1584 5.68512 9.99704 5.6802 9.77857 5.52768C9.59486 5.39975 9.33419 5.27921 8.99656 5.16605C8.65892 5.05289 8.3635 4.99631 8.11027 4.99631C7.79747 4.99631 7.52935 5.03075 7.30592 5.09963C7.08248 5.16851 6.90125 5.28659 6.76223 5.45387C6.6232 5.62116 6.55369 5.81796 6.55369 6.04428C6.55369 6.21648 6.581 6.37146 6.63562 6.50923C6.69023 6.64207 6.79202 6.76507 6.94098 6.87823C7.08993 6.99139 7.29847 7.08241 7.56659 7.15129C7.98366 7.25953 8.3635 7.35793 8.70609 7.44649C9.05365 7.53506 9.36646 7.6433 9.64451 7.77122C10.007 7.9385 10.285 8.123 10.4787 8.32472C10.6773 8.52645 10.8138 8.74539 10.8883 8.98155C10.9628 9.21279 11 9.47109 11 9.75646C11 10.2829 10.8411 10.7282 10.5233 11.0923C10.2105 11.4563 9.86049 11.6999 9.47321 11.8229C9.08593 11.941 8.6192 12 8.07303 12C7.33322 12 6.69768 11.8967 6.16641 11.69C5.6401 11.4785 5.29999 11.2989 5.14607 11.1513Z" fill="#AFB2B6"/>
<rect x="7.5" y="3" width="1" height="1.5" rx="0.2" fill="#AFB2B6"/>
<rect x="7.5" y="11.5" width="1" height="1.5" rx="0.2" fill="#AFB2B6"/>
</svg>
