<svg width="24" height="24" viewBox="0 0 24 24" fill="none" xmlns="http://www.w3.org/2000/svg">
<path fill-rule="evenodd" clip-rule="evenodd" d="M10.5639 6.69438C11.0782 5.76854 12.4097 5.76854 12.9241 6.69438L18.3161 16.4C18.816 17.2999 18.1654 18.4057 17.136 18.4057H6.35194C5.32259 18.4057 4.67193 17.2999 5.17183 16.4L10.5639 6.69438Z" fill="#D74247"/>
<path d="M11.7441 9L11.7441 13" stroke="#202122" stroke-width="1.8" stroke-linecap="round"/>
<mask id="path-3-inside-1_3285_23303" fill="white">
<ellipse cx="11.74" cy="16" rx="1" ry="1"/>
</mask>
<ellipse cx="11.74" cy="16" rx="1" ry="1" fill="#202122"/>
<path d="M10.94 16C10.94 15.5582 11.2982 15.2 11.74 15.2V18.8C13.2864 18.8 14.54 17.5464 14.54 16H10.94ZM11.74 15.2C12.1818 15.2 12.54 15.5582 12.54 16H8.93999C8.93999 17.5464 10.1936 18.8 11.74 18.8V15.2ZM12.54 16C12.54 16.4418 12.1818 16.8 11.74 16.8V13.2C10.1936 13.2 8.93999 14.4536 8.93999 16H12.54ZM11.74 16.8C11.2982 16.8 10.94 16.4418 10.94 16H14.54C14.54 14.4536 13.2864 13.2 11.74 13.2V16.8Z" fill="#202122" mask="url(#path-3-inside-1_3285_23303)"/>
</svg>
