<svg width="16" height="16" viewBox="0 0 16 16" fill="none" xmlns="http://www.w3.org/2000/svg">
<path fill-rule="evenodd" clip-rule="evenodd" d="M6.81386 2.69438C7.32822 1.76854 8.65973 1.76854 9.17409 2.69438L14.5661 12.4C15.066 13.2999 14.4154 14.4057 13.386 14.4057H2.60194C1.57259 14.4057 0.921932 13.2999 1.42183 12.4L6.81386 2.69438Z" fill="#D74247"/>
<path d="M7.99414 5L7.99414 9" stroke="#1D1F20" stroke-width="1.8" stroke-linecap="round"/>
<mask id="path-3-inside-1_1411_3821" fill="white">
<ellipse cx="7.99023" cy="12" rx="1" ry="1"/>
</mask>
<ellipse cx="7.99023" cy="12" rx="1" ry="1" fill="#1D1F20"/>
<path d="M7.19023 12C7.19023 11.5582 7.54841 11.2 7.99023 11.2V14.8C9.53663 14.8 10.7902 13.5464 10.7902 12H7.19023ZM7.99023 11.2C8.43206 11.2 8.79023 11.5582 8.79023 12H5.19023C5.19023 13.5464 6.44384 14.8 7.99023 14.8V11.2ZM8.79023 12C8.79023 12.4418 8.43206 12.8 7.99023 12.8V9.2C6.44384 9.2 5.19023 10.4536 5.19023 12H8.79023ZM7.99023 12.8C7.54841 12.8 7.19023 12.4418 7.19023 12H10.7902C10.7902 10.4536 9.53663 9.2 7.99023 9.2V12.8Z" fill="#1D1F20" mask="url(#path-3-inside-1_1411_3821)"/>
</svg>
