<svg width="10" height="10" viewBox="0 0 10 10" fill="none" xmlns="http://www.w3.org/2000/svg">
  <path fill-rule="evenodd" clip-rule="evenodd" d="M0.57576 0.57576C0.810075 0.341446 1.18997 0.341446 1.42429 0.57576L5.00002 4.1515L8.57576 0.57576C8.81008 0.341446 9.18997 0.341446 9.42429 0.57576C9.6586 0.810075 9.6586 1.18997 9.42429 1.42429L5.84855 5.00002L9.42429 8.57576C9.6586 8.81008 9.6586 9.18997 9.42429 9.42429C9.18997 9.6586 8.81008 9.6586 8.57576 9.42429L5.00002 5.84855L1.42429 9.42429C1.18997 9.6586 0.810075 9.6586 0.57576 9.42429C0.341446 9.18997 0.341446 8.81008 0.57576 8.57576L4.1515 5.00002L0.57576 1.42429C0.341446 1.18997 0.341446 0.810075 0.57576 0.57576Z" fill="#AFB2B6"/>
</svg>
