<svg width="16" height="16" viewBox="0 0 16 16" fill="none" xmlns="http://www.w3.org/2000/svg">
<path d="M7.99984 9.33317C7.26346 9.33317 6.6665 8.73622 6.6665 7.99984C6.6665 7.26346 7.26346 6.6665 7.99984 6.6665C8.73622 6.6665 9.33317 7.26346 9.33317 7.99984C9.33317 8.35346 9.19269 8.6926 8.94265 8.94265C8.6926 9.19269 8.35346 9.33317 7.99984 9.33317Z" fill="#E4E5E7"/>
<path d="M11.9998 9.33317C11.2635 9.33317 10.6665 8.73622 10.6665 7.99984C10.6665 7.26346 11.2635 6.6665 11.9998 6.6665C12.7362 6.6665 13.3332 7.26346 13.3332 7.99984C13.3332 8.35346 13.1927 8.6926 12.9426 8.94265C12.6926 9.19269 12.3535 9.33317 11.9998 9.33317Z" fill="#E4E5E7"/>
<path d="M3.99984 9.33317C3.26346 9.33317 2.6665 8.73622 2.6665 7.99984C2.6665 7.26346 3.26346 6.6665 3.99984 6.6665C4.73622 6.6665 5.33317 7.26346 5.33317 7.99984C5.33317 8.35346 5.19269 8.6926 4.94265 8.94265C4.6926 9.19269 4.35346 9.33317 3.99984 9.33317Z" fill="#E4E5E7"/>
</svg>
