<svg viewBox="0 0 49 48" fill="none" xmlns="http://www.w3.org/2000/svg">
<rect width="48" height="48" transform="translate(0.5)" fill="#202122"/>
<path fill-rule="evenodd" clip-rule="evenodd" d="M16.3182 17.6C17.5326 17.6 18.6652 16.9877 19.3303 15.9716L21.5372 12.6H27.4628L29.6697 15.9716C30.3348 16.9877 31.4674 17.6 32.6818 17.6H38.9V35.4H10.1V17.6H16.3182ZM16.3182 14L19.5909 9H29.4091L32.6818 14H39.2273C40.0953 14 40.9277 14.3512 41.5414 14.9763C42.1552 15.6014 42.5 16.4493 42.5 17.3333V35.6667C42.5 36.5507 42.1552 37.3986 41.5414 38.0237C40.9277 38.6488 40.0953 39 39.2273 39H9.77273C8.90475 39 8.07232 38.6488 7.45856 38.0237C6.8448 37.3986 6.5 36.5507 6.5 35.6667V17.3333C6.5 16.4493 6.8448 15.6014 7.45856 14.9763C8.07232 14.3512 8.90475 14 9.77273 14H16.3182ZM20.3 25.5C20.3 23.1804 22.1804 21.3 24.5 21.3C26.8196 21.3 28.7 23.1804 28.7 25.5C28.7 27.8196 26.8196 29.7 24.5 29.7C22.1804 29.7 20.3 27.8196 20.3 25.5ZM24.5 17.7C20.1922 17.7 16.7 21.1922 16.7 25.5C16.7 29.8078 20.1922 33.3 24.5 33.3C28.8078 33.3 32.3 29.8078 32.3 25.5C32.3 21.1922 28.8078 17.7 24.5 17.7Z" fill="#D3D3D3"/>
<path d="M43.108 8.61451C44.1234 7.59915 44.1234 5.95292 43.108 4.93756C42.0927 3.92219 40.4464 3.92219 39.4311 4.93755L5.20711 39.1615C4.19174 40.1769 4.19174 41.8231 5.20711 42.8385C6.22247 43.8538 7.8687 43.8538 8.88406 42.8385L43.108 8.61451Z" fill="#D3D3D3" stroke="#202122" stroke-width="1.6"/>
</svg>
