<svg viewBox="0 0 24 24" fill="none" xmlns="http://www.w3.org/2000/svg">
<rect x="11.1431" y="17.1431" width="1.71427" height="6.85713" rx="0.857133" fill="#353739"/>
<rect width="1.71427" height="6.85711" rx="0.857136" transform="matrix(0.866024 0.500003 -0.499997 0.866027 8.68628 16.0254)" fill="#4F4F4F"/>
<rect width="1.71428" height="6.85709" rx="0.85714" transform="matrix(0.499997 0.866027 -0.866024 0.500003 7.11768 13.8291)" fill="#7A7A7B"/>
<rect x="6.85693" y="11.1431" width="1.71428" height="6.85708" rx="0.857141" transform="rotate(90 6.85693 11.1431)" fill="#919191"/>
<rect width="1.71428" height="6.85709" rx="0.85714" transform="matrix(-0.499997 0.866027 -0.866024 -0.500003 7.97485 8.68652)" fill="#A7A7A7"/>
<rect width="1.71427" height="6.85712" rx="0.857137" transform="matrix(-0.866024 0.500003 -0.499997 -0.866027 10.1709 7.11768)" fill="#D3D3D3"/>
<rect x="12.8569" y="6.85693" width="1.71427" height="6.85713" rx="0.857134" transform="rotate(180 12.8569 6.85693)" fill="white"/>
<rect width="1.71427" height="6.85712" rx="0.857136" transform="matrix(-0.866024 -0.500003 0.499997 -0.866027 15.3135 7.97461)" fill="#202122"/>
<rect width="1.71428" height="6.85709" rx="0.85714" transform="matrix(-0.499997 -0.866027 0.866023 -0.500003 16.8823 10.1709)" fill="#202122"/>
<rect x="17.1428" y="12.8569" width="1.71428" height="6.85707" rx="0.857141" transform="rotate(-90 17.1428 12.8569)" fill="#202122"/>
<rect width="1.71428" height="6.85709" rx="0.85714" transform="matrix(0.499997 -0.866027 0.866024 0.500003 16.0254 15.3135)" fill="#202122"/>
<rect width="1.71427" height="6.85712" rx="0.857136" transform="matrix(0.866023 -0.500003 0.499997 0.866027 13.8289 16.8823)" fill="#353739"/>
</svg>
