<svg width="16" height="16" viewBox="0 0 16 16" fill="none" xmlns="http://www.w3.org/2000/svg">
<mask id="path-1-inside-1_504_3567" fill="white">
<path fill-rule="evenodd" clip-rule="evenodd" d="M13.25 11.5H2.75H2.7V11.4996C1.20429 11.4729 0 10.2521 0 8.75C0 7.30302 1.11755 6.11706 2.53662 6.00816C2.51249 5.84226 2.5 5.67259 2.5 5.5C2.5 3.567 4.067 2 6 2C7.3372 2 8.49926 2.7499 9.08857 3.8521C9.50925 3.62739 9.98975 3.5 10.5 3.5C11.9893 3.5 13.2251 4.58515 13.4598 6.00789C14.8806 6.11508 16 7.30181 16 8.75C16 10.2185 14.849 11.4181 13.4 11.496V11.5H13.25Z"/>
</mask>
<path d="M2.7 11.5H1.7V12.5H2.7V11.5ZM2.7 11.4996H3.7V10.5172L2.71783 10.4997L2.7 11.4996ZM2.53662 6.00816L2.61314 7.00522L3.68025 6.92333L3.52621 5.86423L2.53662 6.00816ZM9.08857 3.8521L8.2067 4.3236L8.67802 5.20511L9.55972 4.73415L9.08857 3.8521ZM13.4598 6.00789L12.4732 6.17071L12.6011 6.94594L13.3846 7.00505L13.4598 6.00789ZM13.4 11.496L13.3463 10.4974L12.4 10.5483V11.496H13.4ZM13.4 11.5V12.5H14.4V11.5H13.4ZM13.25 10.5H2.75V12.5H13.25V10.5ZM2.75 10.5H2.7V12.5H2.75V10.5ZM3.7 11.5V11.4996H1.7V11.5H3.7ZM2.71783 10.4997C1.76638 10.4827 1 9.70577 1 8.75H-1C-1 10.7984 0.64219 12.463 2.68217 12.4994L2.71783 10.4997ZM1 8.75C1 7.82966 1.71111 7.07445 2.61314 7.00522L2.4601 5.01109C0.523995 5.15967 -1 6.77638 -1 8.75H1ZM3.52621 5.86423C3.50899 5.74584 3.5 5.62427 3.5 5.5H1.5C1.5 5.72091 1.51599 5.93868 1.54703 6.15209L3.52621 5.86423ZM3.5 5.5C3.5 4.11929 4.61929 3 6 3V1C3.51472 1 1.5 3.01472 1.5 5.5H3.5ZM6 3C6.95377 3 7.78441 3.53377 8.2067 4.3236L9.97043 3.3806C9.21411 1.96603 7.72064 1 6 1V3ZM9.55972 4.73415C9.83898 4.58498 10.1581 4.5 10.5 4.5V2.5C9.82141 2.5 9.17951 2.6698 8.61741 2.97005L9.55972 4.73415ZM10.5 4.5C11.4919 4.5 12.3168 5.223 12.4732 6.17071L14.4465 5.84507C14.1333 3.94731 12.4866 2.5 10.5 2.5V4.5ZM13.3846 7.00505C14.2877 7.07319 15 7.82888 15 8.75H17C17 6.77474 15.4735 5.15697 13.5351 5.01072L13.3846 7.00505ZM15 8.75C15 9.68415 14.2676 10.4479 13.3463 10.4974L13.4537 12.4945C15.4305 12.3883 17 10.7528 17 8.75H15ZM12.4 11.496V11.5H14.4V11.496H12.4ZM13.4 10.5H13.25V12.5H13.4V10.5Z" fill="#AFB2B6" mask="url(#path-1-inside-1_504_3567)"/>
</svg>
