<svg viewBox="0 0 16 16" fill="none" xmlns="http://www.w3.org/2000/svg">
<path d="M14.0476 12.2191L8.65554 2.51349C8.36978 1.99913 7.63005 1.99913 7.3443 2.51349L1.95227 12.2191C1.67455 12.719 2.03602 13.3334 2.60789 13.3334H13.3919C13.9638 13.3334 14.3253 12.719 14.0476 12.2191Z" stroke="#FF4444" stroke-width="1.2"/>
<path d="M8 6L8 9" stroke="#FF4444" stroke-width="1.2" stroke-linecap="round"/>
<mask id="path-3-inside-1_1034_467" fill="white">
<ellipse cx="7.99992" cy="11.3333" rx="0.666667" ry="0.666667"/>
</mask>
<ellipse cx="7.99992" cy="11.3333" rx="0.666667" ry="0.666667" fill="#FF4444"/>
<path d="M7.46659 11.3333C7.46659 11.0387 7.70537 10.8 7.99992 10.8V13.2C9.03085 13.2 9.86659 12.3642 9.86659 11.3333H7.46659ZM7.99992 10.8C8.29447 10.8 8.53325 11.0387 8.53325 11.3333H6.13325C6.13325 12.3642 6.96899 13.2 7.99992 13.2V10.8ZM8.53325 11.3333C8.53325 11.6278 8.29447 11.8666 7.99992 11.8666V9.46663C6.96899 9.46663 6.13325 10.3024 6.13325 11.3333H8.53325ZM7.99992 11.8666C7.70537 11.8666 7.46659 11.6278 7.46659 11.3333H9.86659C9.86659 10.3024 9.03085 9.46663 7.99992 9.46663V11.8666Z" fill="#FF4444" mask="url(#path-3-inside-1_1034_467)"/>
</svg>
