<svg width="49" height="48" viewBox="0 0 49 48" fill="none" xmlns="http://www.w3.org/2000/svg">
<path d="M42.6449 36.6563L26.4688 7.53936C25.6115 5.99629 23.3924 5.99629 22.5351 7.53936L6.35901 36.6563C5.52584 38.156 6.61027 39.999 8.32586 39.999H40.678C42.3936 39.999 43.4781 38.156 42.6449 36.6563Z" stroke="#DB575B" stroke-width="3.6"/>
<path d="M24.5 18L24.5 27" stroke="#DB575B" stroke-width="3.6" stroke-linecap="round"/>
<mask id="path-3-inside-1_1244_10134" fill="white">
<ellipse cx="24.502" cy="34.001" rx="2" ry="2"/>
</mask>
<ellipse cx="24.502" cy="34.001" rx="2" ry="2" fill="#DB575B"/>
<path d="M22.902 34.001C22.902 33.1173 23.6183 32.401 24.502 32.401V39.601C27.5947 39.601 30.102 37.0938 30.102 34.001H22.902ZM24.502 32.401C25.3856 32.401 26.102 33.1173 26.102 34.001H18.902C18.902 37.0938 21.4092 39.601 24.502 39.601V32.401ZM26.102 34.001C26.102 34.8846 25.3856 35.601 24.502 35.601V28.401C21.4092 28.401 18.902 30.9082 18.902 34.001H26.102ZM24.502 35.601C23.6183 35.601 22.902 34.8846 22.902 34.001H30.102C30.102 30.9082 27.5947 28.401 24.502 28.401V35.601Z" fill="#DB575B" mask="url(#path-3-inside-1_1244_10134)"/>
</svg>
