<svg width="239" height="48" viewBox="0 0 239 48" fill="none" xmlns="http://www.w3.org/2000/svg">
  <rect width="239" height="24" fill="#202122"/>
  <path d="M17.6818 12.3182C17.8575 12.1425 17.8575 11.8575 17.6818 11.6818L14.7682 8.7682C14.4847 8.48471 14 8.68549 14 9.0864L14 14.9136C14 15.3145 14.4847 15.5153 14.7682 15.2318L17.6818 12.3182Z" fill="#D3D3D3"/>
  <path d="M33.8596 8.39999C33.8596 9.42724 33.0268 10.26 31.9996 10.26C30.9724 10.26 30.1396 9.42724 30.1396 8.39999C30.1396 7.37275 30.9724 6.54 31.9996 6.54C33.0268 6.54 33.8596 7.37275 33.8596 8.39999Z" stroke="white" stroke-width="1.08"/>
  <mask id="path-3-inside-1_2059_113183" fill="white">
    <path d="M28.4004 15.6C28.4004 13.6118 30.0122 12 32.0004 12V12C33.9886 12 35.6004 13.6118 35.6004 15.6V17.5384C35.6004 17.7933 35.3937 18 35.1388 18H28.8619C28.607 18 28.4004 17.7933 28.4004 17.5384V15.6Z"/>
  </mask>
  <path d="M28.4004 15.6C28.4004 13.6118 30.0122 12 32.0004 12V12C33.9886 12 35.6004 13.6118 35.6004 15.6V17.5384C35.6004 17.7933 35.3937 18 35.1388 18H28.8619C28.607 18 28.4004 17.7933 28.4004 17.5384V15.6Z" stroke="white" stroke-width="2.15999" mask="url(#path-3-inside-1_2059_113183)"/>
  <path d="M48.9688 16.5V8.5H49.9375V12.4687H50.0313L53.625 8.5H54.8906L51.5313 12.1094L54.8906 16.5H53.7188L50.9375 12.7812L49.9375 13.9062V16.5H48.9688ZM56.9414 12.8906V16.5H56.0195V10.5H56.9102V11.4375H56.9883C57.1289 11.1328 57.3424 10.888 57.6289 10.7031C57.9154 10.5156 58.2852 10.4219 58.7383 10.4219C59.1445 10.4219 59.5 10.5052 59.8047 10.6719C60.1094 10.8359 60.3464 11.0859 60.5156 11.4219C60.6849 11.7552 60.7695 12.1771 60.7695 12.6875V16.5H59.8477V12.75C59.8477 12.2786 59.7253 11.9115 59.4805 11.6484C59.2357 11.3828 58.8997 11.25 58.4727 11.25C58.1784 11.25 57.9154 11.3138 57.6836 11.4414C57.4544 11.569 57.2734 11.7552 57.1406 12C57.0078 12.2448 56.9414 12.5417 56.9414 12.8906ZM62.4541 16.5V10.5H63.376V16.5H62.4541ZM62.9229 9.5C62.7432 9.5 62.5882 9.4388 62.458 9.31641C62.3304 9.19401 62.2666 9.04688 62.2666 8.875C62.2666 8.70313 62.3304 8.55599 62.458 8.43359C62.5882 8.3112 62.7432 8.25 62.9229 8.25C63.1025 8.25 63.2562 8.3112 63.3838 8.43359C63.514 8.55599 63.5791 8.70313 63.5791 8.875C63.5791 9.04688 63.514 9.19401 63.3838 9.31641C63.2562 9.4388 63.1025 9.5 62.9229 9.5ZM67.4863 18.875C67.041 18.875 66.6582 18.8177 66.3379 18.7031C66.0176 18.5911 65.7507 18.4427 65.5371 18.2578C65.3262 18.0755 65.1582 17.8802 65.0332 17.6719L65.7676 17.1563C65.8509 17.2656 65.9564 17.3906 66.084 17.5312C66.2116 17.6745 66.3861 17.7982 66.6074 17.9023C66.8314 18.0091 67.1243 18.0625 67.4863 18.0625C67.9707 18.0625 68.3704 17.9453 68.6855 17.7109C69.0007 17.4766 69.1582 17.1094 69.1582 16.6094V15.3906H69.0801C69.0124 15.5 68.916 15.6354 68.791 15.7969C68.6686 15.9557 68.4915 16.0977 68.2598 16.2227C68.0306 16.3451 67.7207 16.4062 67.3301 16.4062C66.8457 16.4062 66.4108 16.2917 66.0254 16.0625C65.6426 15.8333 65.3392 15.5 65.1152 15.0625C64.8939 14.625 64.7832 14.0937 64.7832 13.4687C64.7832 12.8542 64.8913 12.319 65.1074 11.8633C65.3236 11.4049 65.6243 11.0508 66.0098 10.8008C66.3952 10.5482 66.8405 10.4219 67.3457 10.4219C67.7363 10.4219 68.0462 10.487 68.2754 10.6172C68.5072 10.7448 68.6842 10.8906 68.8066 11.0547C68.9316 11.2161 69.028 11.349 69.0957 11.4531H69.1895V10.5H70.0801V16.6719C70.0801 17.1875 69.9629 17.6068 69.7285 17.9297C69.4967 18.2552 69.1842 18.4935 68.791 18.6445C68.4004 18.7982 67.9655 18.875 67.4863 18.875ZM67.4551 15.5781C67.8249 15.5781 68.1374 15.4935 68.3926 15.3242C68.6478 15.1549 68.8418 14.9115 68.9746 14.5938C69.1074 14.276 69.1738 13.8958 69.1738 13.4531C69.1738 13.0208 69.1087 12.6393 68.9785 12.3086C68.8483 11.9779 68.6556 11.7187 68.4004 11.5312C68.1452 11.3437 67.8301 11.25 67.4551 11.25C67.0645 11.25 66.7389 11.349 66.4785 11.5469C66.2207 11.7448 66.0267 12.0104 65.8965 12.3438C65.7689 12.6771 65.7051 13.0469 65.7051 13.4531C65.7051 13.8698 65.7702 14.2383 65.9004 14.5586C66.0332 14.8763 66.2285 15.1263 66.4863 15.3086C66.7467 15.4883 67.0697 15.5781 67.4551 15.5781ZM72.6895 12.8906V16.5H71.7676V8.5H72.6895V11.4375H72.7676C72.9082 11.1276 73.1191 10.8815 73.4004 10.6992C73.6842 10.5143 74.0618 10.4219 74.5332 10.4219C74.9421 10.4219 75.3001 10.5039 75.6074 10.668C75.9147 10.8294 76.153 11.0781 76.3223 11.4141C76.4941 11.7474 76.5801 12.1719 76.5801 12.6875V16.5H75.6582V12.75C75.6582 12.2734 75.5345 11.9049 75.2871 11.6445C75.0423 11.3815 74.7025 11.25 74.2676 11.25C73.9655 11.25 73.6947 11.3138 73.4551 11.4414C73.2181 11.569 73.0306 11.7552 72.8926 12C72.7572 12.2448 72.6895 12.5417 72.6895 12.8906ZM80.876 10.5V11.2812H77.7666V10.5H80.876ZM78.6729 9.0625H79.5947V14.7812C79.5947 15.0417 79.6325 15.237 79.708 15.3672C79.7861 15.4948 79.8851 15.5807 80.0049 15.625C80.1273 15.6667 80.2562 15.6875 80.3916 15.6875C80.4932 15.6875 80.5765 15.6823 80.6416 15.6719C80.7067 15.6589 80.7588 15.6484 80.7979 15.6406L80.9854 16.4687C80.9229 16.4922 80.8356 16.5156 80.7236 16.5391C80.6117 16.5651 80.4697 16.5781 80.2979 16.5781C80.0374 16.5781 79.7822 16.5221 79.5322 16.4102C79.2848 16.2982 79.0791 16.1276 78.915 15.8984C78.7536 15.6693 78.6729 15.3802 78.6729 15.0312V9.0625ZM82.9346 16.5625C82.7419 16.5625 82.5765 16.4935 82.4385 16.3555C82.3005 16.2174 82.2314 16.0521 82.2314 15.8594C82.2314 15.6667 82.3005 15.5013 82.4385 15.3633C82.5765 15.2253 82.7419 15.1562 82.9346 15.1562C83.1273 15.1562 83.2926 15.2253 83.4307 15.3633C83.5687 15.5013 83.6377 15.6667 83.6377 15.8594C83.6377 15.987 83.6051 16.1042 83.54 16.2109C83.4775 16.3177 83.3929 16.4036 83.2861 16.4687C83.182 16.5313 83.0648 16.5625 82.9346 16.5625ZM87.7139 18.875C87.2686 18.875 86.8857 18.8177 86.5654 18.7031C86.2451 18.5911 85.9782 18.4427 85.7646 18.2578C85.5537 18.0755 85.3857 17.8802 85.2607 17.6719L85.9951 17.1563C86.0785 17.2656 86.1839 17.3906 86.3115 17.5312C86.4391 17.6745 86.6136 17.7982 86.835 17.9023C87.0589 18.0091 87.3519 18.0625 87.7139 18.0625C88.1982 18.0625 88.598 17.9453 88.9131 17.7109C89.2282 17.4766 89.3857 17.1094 89.3857 16.6094V15.3906H89.3076C89.2399 15.5 89.1436 15.6354 89.0186 15.7969C88.8962 15.9557 88.7191 16.0977 88.4873 16.2227C88.2581 16.3451 87.9482 16.4062 87.5576 16.4062C87.0732 16.4062 86.6383 16.2917 86.2529 16.0625C85.8701 15.8333 85.5667 15.5 85.3428 15.0625C85.1214 14.625 85.0107 14.0937 85.0107 13.4687C85.0107 12.8542 85.1188 12.319 85.335 11.8633C85.5511 11.4049 85.8519 11.0508 86.2373 10.8008C86.6227 10.5482 87.068 10.4219 87.5732 10.4219C87.9639 10.4219 88.2738 10.487 88.5029 10.6172C88.7347 10.7448 88.9118 10.8906 89.0342 11.0547C89.1592 11.2161 89.2555 11.349 89.3232 11.4531H89.417V10.5H90.3076V16.6719C90.3076 17.1875 90.1904 17.6068 89.9561 17.9297C89.7243 18.2552 89.4118 18.4935 89.0186 18.6445C88.6279 18.7982 88.193 18.875 87.7139 18.875ZM87.6826 15.5781C88.0524 15.5781 88.3649 15.4935 88.6201 15.3242C88.8753 15.1549 89.0693 14.9115 89.2021 14.5938C89.335 14.276 89.4014 13.8958 89.4014 13.4531C89.4014 13.0208 89.3363 12.6393 89.2061 12.3086C89.0758 11.9779 88.8831 11.7187 88.6279 11.5312C88.3727 11.3437 88.0576 11.25 87.6826 11.25C87.292 11.25 86.9665 11.349 86.7061 11.5469C86.4482 11.7448 86.2542 12.0104 86.124 12.3438C85.9964 12.6771 85.9326 13.0469 85.9326 13.4531C85.9326 13.8698 85.9977 14.2383 86.1279 14.5586C86.2607 14.8763 86.4561 15.1263 86.7139 15.3086C86.9743 15.4883 87.2972 15.5781 87.6826 15.5781ZM92.917 8.5V16.5H91.9951V8.5H92.917ZM94.7305 16.5V8.5H95.6523V11.4531H95.7305C95.7982 11.349 95.8919 11.2161 96.0117 11.0547C96.1341 10.8906 96.3086 10.7448 96.5352 10.6172C96.7643 10.487 97.0742 10.4219 97.4648 10.4219C97.9701 10.4219 98.4154 10.5482 98.8008 10.8008C99.1862 11.0534 99.487 11.4115 99.7031 11.875C99.9193 12.3385 100.027 12.8854 100.027 13.5156C100.027 14.151 99.9193 14.7018 99.7031 15.168C99.487 15.6315 99.1875 15.9909 98.8047 16.2461C98.4219 16.4987 97.9805 16.625 97.4805 16.625C97.0951 16.625 96.7865 16.5612 96.5547 16.4336C96.3229 16.3034 96.1445 16.1562 96.0195 15.9922C95.8945 15.8255 95.7982 15.6875 95.7305 15.5781H95.6211V16.5H94.7305ZM95.6367 13.5C95.6367 13.9531 95.7031 14.3529 95.8359 14.6992C95.9688 15.043 96.1628 15.3125 96.418 15.5078C96.6732 15.7005 96.9857 15.7969 97.3555 15.7969C97.7409 15.7969 98.0625 15.6953 98.3203 15.4922C98.5807 15.2865 98.776 15.0104 98.9063 14.6641C99.0391 14.3151 99.1055 13.9271 99.1055 13.5C99.1055 13.0781 99.0404 12.6979 98.9102 12.3594C98.7826 12.0182 98.5885 11.7487 98.3281 11.5508C98.0703 11.3503 97.7461 11.25 97.3555 11.25C96.9805 11.25 96.6654 11.3451 96.4102 11.5352C96.1549 11.7227 95.9622 11.9857 95.832 12.3242C95.7018 12.6602 95.6367 13.0521 95.6367 13.5Z" fill="white"/>
  <rect width="239" height="24" transform="translate(0 24)" fill="#202122"/>
  <path d="M14.266 36C14.266 34.1222 15.7882 32.6 17.666 32.6C19.5438 32.6 21.066 34.1222 21.066 36C21.066 37.8778 19.5438 39.4 17.666 39.4C15.7882 39.4 14.266 37.8778 14.266 36Z" stroke="white" stroke-width="1.2"/>
  <path d="M32.8438 40.5V34.5H33.7344V35.4375H33.8125C33.9375 35.1172 34.1393 34.8685 34.418 34.6914C34.6966 34.5117 35.0313 34.4219 35.4219 34.4219C35.8177 34.4219 36.1471 34.5117 36.4102 34.6914C36.6758 34.8685 36.8828 35.1172 37.0313 35.4375H37.0938C37.2474 35.1276 37.4779 34.8815 37.7852 34.6992C38.0924 34.5143 38.4609 34.4219 38.8906 34.4219C39.4271 34.4219 39.8659 34.5898 40.207 34.9258C40.5482 35.2591 40.7188 35.7786 40.7188 36.4844V40.5H39.7969V36.4844C39.7969 36.0417 39.6758 35.7253 39.4336 35.5352C39.1914 35.3451 38.9063 35.25 38.5781 35.25C38.1563 35.25 37.8294 35.3776 37.5977 35.6328C37.3659 35.8854 37.25 36.2057 37.25 36.5937V40.5H36.3125V36.3906C36.3125 36.0495 36.2018 35.7747 35.9805 35.5664C35.7591 35.3555 35.474 35.25 35.125 35.25C34.8854 35.25 34.6615 35.3138 34.4531 35.4414C34.2474 35.569 34.0807 35.7461 33.9531 35.9727C33.8281 36.1966 33.7656 36.4557 33.7656 36.75V40.5H32.8438ZM44.8418 40.625C44.3001 40.625 43.8249 40.4961 43.416 40.2383C43.0098 39.9805 42.6921 39.6198 42.4629 39.1562C42.2363 38.6927 42.123 38.151 42.123 37.5312C42.123 36.9062 42.2363 36.3607 42.4629 35.8945C42.6921 35.4284 43.0098 35.0664 43.416 34.8086C43.8249 34.5508 44.3001 34.4219 44.8418 34.4219C45.3835 34.4219 45.8574 34.5508 46.2637 34.8086C46.6725 35.0664 46.9902 35.4284 47.2168 35.8945C47.446 36.3607 47.5605 36.9062 47.5605 37.5312C47.5605 38.151 47.446 38.6927 47.2168 39.1562C46.9902 39.6198 46.6725 39.9805 46.2637 40.2383C45.8574 40.4961 45.3835 40.625 44.8418 40.625ZM44.8418 39.7969C45.2533 39.7969 45.5918 39.6914 45.8574 39.4805C46.123 39.2695 46.3197 38.9922 46.4473 38.6484C46.5749 38.3047 46.6387 37.9323 46.6387 37.5312C46.6387 37.1302 46.5749 36.7565 46.4473 36.4102C46.3197 36.0638 46.123 35.7839 45.8574 35.5703C45.5918 35.3568 45.2533 35.25 44.8418 35.25C44.4303 35.25 44.0918 35.3568 43.8262 35.5703C43.5605 35.7839 43.3639 36.0638 43.2363 36.4102C43.1087 36.7565 43.0449 37.1302 43.0449 37.5312C43.0449 37.9323 43.1087 38.3047 43.2363 38.6484C43.3639 38.9922 43.5605 39.2695 43.8262 39.4805C44.0918 39.6914 44.4303 39.7969 44.8418 39.7969ZM51.5771 34.5V35.2812H48.4678V34.5H51.5771ZM49.374 33.0625H50.2959V38.7812C50.2959 39.0417 50.3337 39.237 50.4092 39.3672C50.4873 39.4948 50.5863 39.5807 50.7061 39.625C50.8285 39.6667 50.9574 39.6875 51.0928 39.6875C51.1943 39.6875 51.2777 39.6823 51.3428 39.6719C51.4079 39.6589 51.46 39.6484 51.499 39.6406L51.6865 40.4687C51.624 40.4922 51.5368 40.5156 51.4248 40.5391C51.3128 40.5651 51.1709 40.5781 50.999 40.5781C50.7386 40.5781 50.4834 40.5221 50.2334 40.4102C49.986 40.2982 49.7803 40.1276 49.6162 39.8984C49.4548 39.6693 49.374 39.3802 49.374 39.0312V33.0625ZM52.9639 40.5V34.5H53.8857V40.5H52.9639ZM53.4326 33.5C53.2529 33.5 53.098 33.4388 52.9678 33.3164C52.8402 33.194 52.7764 33.0469 52.7764 32.875C52.7764 32.7031 52.8402 32.556 52.9678 32.4336C53.098 32.3112 53.2529 32.25 53.4326 32.25C53.6123 32.25 53.766 32.3112 53.8936 32.4336C54.0238 32.556 54.0889 32.7031 54.0889 32.875C54.0889 33.0469 54.0238 33.194 53.8936 33.3164C53.766 33.4388 53.6123 33.5 53.4326 33.5ZM58.0117 40.625C57.4701 40.625 56.9948 40.4961 56.5859 40.2383C56.1797 39.9805 55.862 39.6198 55.6328 39.1562C55.4063 38.6927 55.293 38.151 55.293 37.5312C55.293 36.9062 55.4063 36.3607 55.6328 35.8945C55.862 35.4284 56.1797 35.0664 56.5859 34.8086C56.9948 34.5508 57.4701 34.4219 58.0117 34.4219C58.5534 34.4219 59.0273 34.5508 59.4336 34.8086C59.8424 35.0664 60.1602 35.4284 60.3867 35.8945C60.6159 36.3607 60.7305 36.9062 60.7305 37.5312C60.7305 38.151 60.6159 38.6927 60.3867 39.1562C60.1602 39.6198 59.8424 39.9805 59.4336 40.2383C59.0273 40.4961 58.5534 40.625 58.0117 40.625ZM58.0117 39.7969C58.4232 39.7969 58.7617 39.6914 59.0273 39.4805C59.293 39.2695 59.4896 38.9922 59.6172 38.6484C59.7448 38.3047 59.8086 37.9323 59.8086 37.5312C59.8086 37.1302 59.7448 36.7565 59.6172 36.4102C59.4896 36.0638 59.293 35.7839 59.0273 35.5703C58.7617 35.3568 58.4232 35.25 58.0117 35.25C57.6003 35.25 57.2617 35.3568 56.9961 35.5703C56.7305 35.7839 56.5339 36.0638 56.4062 36.4102C56.2786 36.7565 56.2148 37.1302 56.2148 37.5312C56.2148 37.9323 56.2786 38.3047 56.4062 38.6484C56.5339 38.9922 56.7305 39.2695 56.9961 39.4805C57.2617 39.6914 57.6003 39.7969 58.0117 39.7969ZM63.0596 36.8906V40.5H62.1377V34.5H63.0283V35.4375H63.1064C63.2471 35.1328 63.4606 34.888 63.7471 34.7031C64.0335 34.5156 64.4033 34.4219 64.8564 34.4219C65.2627 34.4219 65.6182 34.5052 65.9229 34.6719C66.2275 34.8359 66.4645 35.0859 66.6338 35.4219C66.8031 35.7552 66.8877 36.1771 66.8877 36.6875V40.5H65.9658V36.75C65.9658 36.2786 65.8434 35.9115 65.5986 35.6484C65.3538 35.3828 65.0179 35.25 64.5908 35.25C64.2965 35.25 64.0335 35.3138 63.8018 35.4414C63.5726 35.569 63.3916 35.7552 63.2588 36C63.126 36.2448 63.0596 36.5417 63.0596 36.8906Z" fill="white"/>
  <path d="M129.196 36.0193C128.655 35.911 128.128 36.2622 128.019 36.8038C127.911 37.3453 128.262 37.8721 128.804 37.9804L129.196 36.0193ZM119.445 14.1677C118.986 14.4741 118.862 15.0949 119.168 15.5545L124.16 23.0429C124.467 23.5025 125.087 23.6266 125.547 23.3203C126.006 23.0139 126.131 22.3931 125.824 21.9335L121.387 15.2771L128.043 10.8395C128.503 10.5332 128.627 9.91232 128.321 9.45279C128.014 8.99326 127.393 8.86908 126.934 9.17543L119.445 14.1677ZM129 36.9999C128.804 37.9804 128.804 37.9805 128.805 37.9806C128.805 37.9807 128.806 37.9808 128.806 37.9809C128.807 37.9811 128.808 37.9813 128.809 37.9815C128.812 37.982 128.815 37.9826 128.819 37.9833C128.826 37.9848 128.836 37.9866 128.848 37.9888C128.872 37.9933 128.906 37.9993 128.948 38.0063C129.033 38.0204 129.153 38.0389 129.304 38.0581C129.604 38.0966 130.028 38.1387 130.537 38.1555C131.548 38.1889 132.928 38.1239 134.343 37.7095C135.765 37.2933 137.254 36.5149 138.419 35.1057C139.589 33.6915 140.365 31.7234 140.499 29.0497L138.501 28.9498C138.385 31.2761 137.724 32.808 136.878 33.8312C136.027 34.8595 134.922 35.4562 133.782 35.79C132.635 36.1257 131.483 36.1857 130.603 36.1566C130.167 36.1422 129.806 36.1062 129.558 36.0744C129.434 36.0585 129.338 36.0437 129.277 36.0334C129.246 36.0283 129.223 36.0242 129.209 36.0217C129.203 36.0205 129.198 36.0196 129.196 36.0192C129.195 36.019 129.194 36.0189 129.194 36.0189C129.194 36.0189 129.194 36.0189 129.195 36.019C129.195 36.019 129.195 36.0191 129.195 36.0191C129.196 36.0192 129.196 36.0193 129 36.9999ZM140.499 29.0497C140.642 26.1752 139.3 23.7897 137.367 21.8818C135.443 19.9835 132.871 18.4877 130.352 17.3398C127.823 16.1873 125.288 15.3589 123.391 14.8192C122.441 14.5489 121.647 14.3498 121.088 14.2179C120.809 14.152 120.588 14.1028 120.436 14.0698C120.36 14.0534 120.302 14.0409 120.261 14.0325C120.241 14.0283 120.225 14.0251 120.214 14.0229C120.209 14.0218 120.205 14.0209 120.202 14.0203C120.2 14.02 120.199 14.0197 120.198 14.0195C120.198 14.0195 120.197 14.0194 120.197 14.0193C120.196 14.0192 120.196 14.0192 120 14.9998C119.804 15.9803 119.804 15.9803 119.804 15.9803C119.804 15.9803 119.804 15.9803 119.804 15.9803C119.804 15.9804 119.805 15.9805 119.806 15.9807C119.807 15.9811 119.81 15.9817 119.815 15.9825C119.823 15.9842 119.836 15.9869 119.854 15.9906C119.889 15.9979 119.942 16.0091 120.013 16.0244C120.153 16.0549 120.362 16.1014 120.629 16.1644C121.162 16.2904 121.926 16.4819 122.844 16.7428C124.681 17.2657 127.115 18.0623 129.523 19.1598C131.941 20.2619 134.276 21.6411 135.962 23.3053C137.638 24.9599 138.608 26.8243 138.501 28.9498L140.499 29.0497Z" fill="#0F88FF"/>
</svg>
