<svg width="240" height="52" viewBox="0 0 240 52" fill="none" xmlns="http://www.w3.org/2000/svg">
<rect width="240" height="52" fill="#1D1F20"/>
<path d="M17.6818 13.3182C17.8575 13.1425 17.8575 12.8575 17.6818 12.6818L14.7682 9.7682C14.4847 9.48471 14 9.68549 14 10.0864L14 15.9136C14 16.3145 14.4847 16.5153 14.7682 16.2318L17.6818 13.3182Z" fill="#61666B"/>
<path d="M33.8596 9.39999C33.8596 10.4272 33.0268 11.26 31.9996 11.26C30.9724 11.26 30.1396 10.4272 30.1396 9.39999C30.1396 8.37275 30.9724 7.54 31.9996 7.54C33.0268 7.54 33.8596 8.37275 33.8596 9.39999Z" stroke="#E4E5E7" stroke-width="1.08"/>
<mask id="path-3-inside-1_6078_21430" fill="white">
<path d="M28.4004 16.6C28.4004 14.6118 30.0122 13 32.0004 13V13C33.9886 13 35.6004 14.6118 35.6004 16.6V18.5384C35.6004 18.7933 35.3937 19 35.1388 19H28.8619C28.607 19 28.4004 18.7933 28.4004 18.5384V16.6Z"/>
</mask>
<path d="M28.4004 16.6C28.4004 14.6118 30.0122 13 32.0004 13V13C33.9886 13 35.6004 14.6118 35.6004 16.6V18.5384C35.6004 18.7933 35.3937 19 35.1388 19H28.8619C28.607 19 28.4004 18.7933 28.4004 18.5384V16.6Z" stroke="#E4E5E7" stroke-width="2.15999" mask="url(#path-3-inside-1_6078_21430)"/>
<path d="M49.1591 8.77273H50.0795L53.2457 16.375H53.3224L56.4886 8.77273H57.4091V17.5H56.6591V10.456H56.5909L53.6463 17.5H52.9219L49.9773 10.456H49.9091V17.5H49.1591V8.77273ZM62.1158 17.6364C61.5504 17.6364 61.0504 17.4929 60.6158 17.206C60.1839 16.919 59.8459 16.5227 59.6016 16.017C59.3572 15.5085 59.2351 14.9219 59.2351 14.2571C59.2351 13.5866 59.3572 12.9972 59.6016 12.4886C59.8459 11.9773 60.1839 11.5795 60.6158 11.2955C61.0504 11.0085 61.5504 10.8651 62.1158 10.8651C62.6811 10.8651 63.1797 11.0085 63.6115 11.2955C64.0433 11.5824 64.3814 11.9801 64.6257 12.4886C64.8729 12.9972 64.9964 13.5866 64.9964 14.2571C64.9964 14.9219 64.8743 15.5085 64.63 16.017C64.3857 16.5227 64.0462 16.919 63.6115 17.206C63.1797 17.4929 62.6811 17.6364 62.1158 17.6364ZM62.1158 16.9418C62.5703 16.9418 62.9553 16.8196 63.2706 16.5753C63.5859 16.331 63.8246 16.0057 63.9865 15.5994C64.1513 15.1932 64.2337 14.7457 64.2337 14.2571C64.2337 13.7685 64.1513 13.3196 63.9865 12.9105C63.8246 12.5014 63.5859 12.1733 63.2706 11.9261C62.9553 11.679 62.5703 11.5554 62.1158 11.5554C61.6641 11.5554 61.2791 11.679 60.9609 11.9261C60.6456 12.1733 60.4055 12.5014 60.2408 12.9105C60.0788 13.3196 59.9979 13.7685 59.9979 14.2571C59.9979 14.7457 60.0788 15.1932 60.2408 15.5994C60.4055 16.0057 60.6456 16.331 60.9609 16.5753C61.2763 16.8196 61.6612 16.9418 62.1158 16.9418ZM69.0181 17.6364C68.4812 17.6364 68.011 17.4943 67.6076 17.2102C67.2042 16.9261 66.8888 16.5298 66.6616 16.0213C66.4371 15.5128 66.3249 14.9205 66.3249 14.2443C66.3249 13.571 66.4371 12.9815 66.6616 12.4759C66.8888 11.9673 67.2056 11.5724 67.6119 11.2912C68.0181 11.0071 68.4911 10.8651 69.0309 10.8651C69.4286 10.8651 69.7596 10.9361 70.0238 11.0781C70.288 11.2173 70.4996 11.3906 70.6587 11.598C70.8178 11.8054 70.9414 12.0071 71.0295 12.2031H71.0977V8.77273H71.8604V17.5H71.119V16.2855H71.0295C70.9414 16.4844 70.8164 16.6889 70.6545 16.8991C70.4925 17.1065 70.2781 17.2812 70.011 17.4233C69.7468 17.5653 69.4158 17.6364 69.0181 17.6364ZM69.1076 16.9418C69.5309 16.9418 69.8917 16.8267 70.19 16.5966C70.4883 16.3636 70.7156 16.044 70.8718 15.6378C71.0309 15.2287 71.1104 14.7599 71.1104 14.2315C71.1104 13.7088 71.0323 13.2472 70.8761 12.8466C70.7198 12.4432 70.4925 12.1278 70.1942 11.9006C69.896 11.6705 69.5337 11.5554 69.1076 11.5554C68.6701 11.5554 68.3008 11.6747 67.9996 11.9134C67.7013 12.1491 67.4741 12.4687 67.3178 12.8722C67.1644 13.2756 67.0877 13.7287 67.0877 14.2315C67.0877 14.7401 67.1658 15.1989 67.3221 15.608C67.4783 16.017 67.7056 16.3423 68.0039 16.5838C68.305 16.8224 68.6729 16.9418 69.1076 16.9418ZM76.6673 17.6364C76.0565 17.6364 75.5281 17.4943 75.082 17.2102C74.636 16.9233 74.2908 16.527 74.0465 16.0213C73.805 15.5128 73.6843 14.9276 73.6843 14.2656C73.6843 13.6065 73.805 13.0213 74.0465 12.5099C74.2908 11.9957 74.6275 11.5937 75.0565 11.304C75.4883 11.0114 75.9869 10.8651 76.5522 10.8651C76.9073 10.8651 77.2496 10.9304 77.5792 11.0611C77.9087 11.1889 78.2042 11.3864 78.4656 11.6534C78.7298 11.9176 78.9386 12.2514 79.092 12.6548C79.2454 13.0554 79.3221 13.5298 79.3221 14.0781V14.4531H74.2085V13.7841H78.5465C78.5465 13.3636 78.4613 12.9858 78.2908 12.6506C78.1232 12.3125 77.8888 12.0455 77.5877 11.8494C77.2894 11.6534 76.9442 11.5554 76.5522 11.5554C76.1374 11.5554 75.7724 11.6662 75.457 11.8878C75.1417 12.1094 74.8945 12.402 74.7156 12.7656C74.5394 13.1293 74.4499 13.527 74.4471 13.9588V14.3594C74.4471 14.8793 74.5366 15.3338 74.7156 15.723C74.8974 16.1094 75.1545 16.4091 75.4869 16.6222C75.8192 16.8352 76.2127 16.9418 76.6673 16.9418C76.9769 16.9418 77.2482 16.8935 77.4812 16.7969C77.717 16.7003 77.9144 16.571 78.0735 16.4091C78.2354 16.2443 78.3576 16.0639 78.44 15.8679L79.1602 16.1023C79.0607 16.3778 78.8974 16.6321 78.6701 16.8651C78.4457 17.098 78.1644 17.2855 77.8263 17.4276C77.4911 17.5668 77.1048 17.6364 76.6673 17.6364ZM81.7521 8.77273V17.5H80.9936V8.77273H81.7521Z" fill="#E4E5E7"/>
<path d="M12.6 39C12.6 37.1222 14.1222 35.6 16 35.6C17.8778 35.6 19.4 37.1222 19.4 39C19.4 40.8778 17.8778 42.4 16 42.4C14.1222 42.4 12.6 40.8778 12.6 39Z" stroke="#E4E5E7" stroke-width="1.2"/>
<path d="M33.1591 34.7727H34.0795L37.2457 42.375H37.3224L40.4886 34.7727H41.4091V43.5H40.6591V36.456H40.5909L37.6463 43.5H36.9219L33.9773 36.456H33.9091V43.5H33.1591V34.7727ZM46.1158 43.6364C45.5504 43.6364 45.0504 43.4929 44.6158 43.206C44.1839 42.919 43.8459 42.5227 43.6016 42.017C43.3572 41.5085 43.2351 40.9219 43.2351 40.2571C43.2351 39.5866 43.3572 38.9972 43.6016 38.4886C43.8459 37.9773 44.1839 37.5795 44.6158 37.2955C45.0504 37.0085 45.5504 36.8651 46.1158 36.8651C46.6811 36.8651 47.1797 37.0085 47.6115 37.2955C48.0433 37.5824 48.3814 37.9801 48.6257 38.4886C48.8729 38.9972 48.9964 39.5866 48.9964 40.2571C48.9964 40.9219 48.8743 41.5085 48.63 42.017C48.3857 42.5227 48.0462 42.919 47.6115 43.206C47.1797 43.4929 46.6811 43.6364 46.1158 43.6364ZM46.1158 42.9418C46.5703 42.9418 46.9553 42.8196 47.2706 42.5753C47.5859 42.331 47.8246 42.0057 47.9865 41.5994C48.1513 41.1932 48.2337 40.7457 48.2337 40.2571C48.2337 39.7685 48.1513 39.3196 47.9865 38.9105C47.8246 38.5014 47.5859 38.1733 47.2706 37.9261C46.9553 37.679 46.5703 37.5554 46.1158 37.5554C45.6641 37.5554 45.2791 37.679 44.9609 37.9261C44.6456 38.1733 44.4055 38.5014 44.2408 38.9105C44.0788 39.3196 43.9979 39.7685 43.9979 40.2571C43.9979 40.7457 44.0788 41.1932 44.2408 41.5994C44.4055 42.0057 44.6456 42.331 44.9609 42.5753C45.2763 42.8196 45.6612 42.9418 46.1158 42.9418ZM53.2397 36.9545V37.6151H50.1161V36.9545H53.2397ZM51.092 35.3864H51.8548V41.7912C51.8548 42.0639 51.9016 42.2784 51.9954 42.4347C52.0891 42.5881 52.2113 42.6974 52.3619 42.7628C52.5124 42.8253 52.6729 42.8565 52.8434 42.8565C52.9428 42.8565 53.0281 42.8509 53.0991 42.8395C53.1701 42.8253 53.2326 42.8111 53.2866 42.7969L53.4485 43.483C53.3746 43.5114 53.2837 43.5369 53.1758 43.5597C53.0678 43.5852 52.9343 43.598 52.7752 43.598C52.4968 43.598 52.2283 43.5369 51.9698 43.4148C51.7141 43.2926 51.5039 43.1108 51.3391 42.8693C51.1744 42.6278 51.092 42.3281 51.092 41.9702V35.3864ZM54.9709 43.5V36.9545H55.7337V43.5H54.9709ZM55.3587 35.8295C55.2024 35.8295 55.0689 35.777 54.9581 35.6719C54.8473 35.5639 54.7919 35.4347 54.7919 35.2841C54.7919 35.1335 54.8473 35.0057 54.9581 34.9006C55.0689 34.7926 55.2024 34.7386 55.3587 34.7386C55.5149 34.7386 55.6484 34.7926 55.7592 34.9006C55.87 35.0057 55.9254 35.1335 55.9254 35.2841C55.9254 35.4347 55.87 35.5639 55.7592 35.6719C55.6484 35.777 55.5149 35.8295 55.3587 35.8295ZM60.2837 43.6364C59.7184 43.6364 59.2184 43.4929 58.7837 43.206C58.3519 42.919 58.0138 42.5227 57.7695 42.017C57.5252 41.5085 57.4031 40.9219 57.4031 40.2571C57.4031 39.5866 57.5252 38.9972 57.7695 38.4886C58.0138 37.9773 58.3519 37.5795 58.7837 37.2955C59.2184 37.0085 59.7184 36.8651 60.2837 36.8651C60.8491 36.8651 61.3477 37.0085 61.7795 37.2955C62.2113 37.5824 62.5494 37.9801 62.7937 38.4886C63.0408 38.9972 63.1644 39.5866 63.1644 40.2571C63.1644 40.9219 63.0423 41.5085 62.7979 42.017C62.5536 42.5227 62.2141 42.919 61.7795 43.206C61.3477 43.4929 60.8491 43.6364 60.2837 43.6364ZM60.2837 42.9418C60.7383 42.9418 61.1232 42.8196 61.4386 42.5753C61.7539 42.331 61.9925 42.0057 62.1545 41.5994C62.3192 41.1932 62.4016 40.7457 62.4016 40.2571C62.4016 39.7685 62.3192 39.3196 62.1545 38.9105C61.9925 38.5014 61.7539 38.1733 61.4386 37.9261C61.1232 37.679 60.7383 37.5554 60.2837 37.5554C59.832 37.5554 59.4471 37.679 59.1289 37.9261C58.8136 38.1733 58.5735 38.5014 58.4087 38.9105C58.2468 39.3196 58.1658 39.7685 58.1658 40.2571C58.1658 40.7457 58.2468 41.1932 58.4087 41.5994C58.5735 42.0057 58.8136 42.331 59.1289 42.5753C59.4442 42.8196 59.8292 42.9418 60.2837 42.9418ZM65.5881 39.4091V43.5H64.8295V36.9545H65.5668V37.9815H65.6349C65.7884 37.6463 66.027 37.3778 66.3509 37.1761C66.6776 36.9716 67.081 36.8693 67.5611 36.8693C68.0014 36.8693 68.3878 36.9616 68.7202 37.1463C69.0554 37.3281 69.3153 37.5966 69.5 37.9517C69.6875 38.3068 69.7812 38.7429 69.7812 39.2599V43.5H69.0227V39.3068C69.0227 38.7699 68.8722 38.3452 68.571 38.0327C68.2727 37.7202 67.8722 37.5639 67.3693 37.5639C67.0256 37.5639 66.7202 37.6378 66.4531 37.7855C66.1861 37.9332 65.9744 38.1463 65.8182 38.4247C65.6648 38.7003 65.5881 39.0284 65.5881 39.4091Z" fill="#E4E5E7"/>
<rect x="0.5" y="26.5" width="239" height="25" stroke="#258CF4"/>
<path d="M113.196 34.0195C112.655 33.9112 112.128 34.2624 112.019 34.804C111.911 35.3456 112.262 35.8724 112.804 35.9807L113.196 34.0195ZM103.445 12.1679C102.986 12.4743 102.862 13.0952 103.168 13.5547L108.16 21.0432C108.467 21.5027 109.087 21.6269 109.547 21.3205C110.006 21.0142 110.131 20.3933 109.824 19.9338L105.387 13.2774L112.043 8.83978C112.503 8.53343 112.627 7.91256 112.321 7.45303C112.014 6.99351 111.393 6.86933 110.934 7.17568L103.445 12.1679ZM113 35.0001C112.804 35.9807 112.804 35.9808 112.805 35.9809C112.805 35.9809 112.806 35.9811 112.806 35.9811C112.807 35.9813 112.808 35.9815 112.809 35.9818C112.812 35.9823 112.815 35.9829 112.819 35.9836C112.826 35.985 112.836 35.9868 112.848 35.9891C112.872 35.9935 112.906 35.9995 112.948 36.0066C113.033 36.0207 113.153 36.0391 113.304 36.0584C113.604 36.0969 114.028 36.139 114.537 36.1558C115.548 36.1892 116.928 36.1242 118.343 35.7097C119.765 35.2935 121.254 34.5152 122.419 33.106C123.589 31.6917 124.365 29.7236 124.499 27.0499L122.501 26.9501C122.385 29.2763 121.724 30.8082 120.878 31.8315C120.027 32.8598 118.922 33.4565 117.782 33.7903C116.635 34.1259 115.483 34.1859 114.603 34.1569C114.167 34.1424 113.806 34.1064 113.558 34.0746C113.434 34.0587 113.338 34.044 113.277 34.0337C113.246 34.0285 113.223 34.0245 113.209 34.022C113.203 34.0207 113.198 34.0199 113.196 34.0194C113.195 34.0192 113.194 34.0191 113.194 34.0191C113.194 34.0191 113.194 34.0192 113.195 34.0192C113.195 34.0193 113.195 34.0193 113.195 34.0194C113.196 34.0194 113.196 34.0195 113 35.0001ZM124.499 27.0499C124.642 24.1755 123.3 21.7899 121.367 19.8821C119.443 17.9837 116.871 16.4879 114.352 15.3401C111.823 14.1875 109.288 13.3591 107.391 12.8194C106.441 12.5491 105.647 12.35 105.088 12.2182C104.809 12.1522 104.588 12.103 104.436 12.0701C104.36 12.0536 104.302 12.0412 104.261 12.0328C104.241 12.0286 104.225 12.0253 104.214 12.0231C104.209 12.022 104.205 12.0211 104.202 12.0205C104.2 12.0202 104.199 12.02 104.198 12.0198C104.198 12.0197 104.197 12.0196 104.197 12.0196C104.196 12.0195 104.196 12.0194 104 13C103.804 13.9806 103.804 13.9806 103.804 13.9805C103.804 13.9805 103.804 13.9805 103.804 13.9806C103.804 13.9806 103.805 13.9808 103.806 13.9809C103.807 13.9813 103.81 13.9819 103.815 13.9828C103.823 13.9845 103.836 13.9871 103.854 13.9908C103.889 13.9981 103.942 14.0094 104.013 14.0247C104.153 14.0552 104.362 14.1017 104.629 14.1646C105.162 14.2906 105.926 14.4822 106.844 14.7431C108.681 15.2659 111.115 16.0625 113.523 17.16C115.941 18.2621 118.276 19.6413 119.962 21.3055C121.638 22.9601 122.608 24.8246 122.501 26.9501L124.499 27.0499Z" fill="#0F88FF"/>
</svg>
