<svg width="260" height="64" viewBox="0 0 260 64" fill="none" xmlns="http://www.w3.org/2000/svg">
<rect width="260" height="64" fill="#1D1F20"/>
<path d="M17.6818 16.3182C17.8575 16.1425 17.8575 15.8575 17.6818 15.6818L14.7682 12.7682C14.4847 12.4847 14 12.6855 14 13.0864L14 18.9136C14 19.3145 14.4847 19.5153 14.7682 19.2318L17.6818 16.3182Z" fill="#61666B"/>
<path d="M33.8596 12.4C33.8596 13.4272 33.0268 14.26 31.9996 14.26C30.9724 14.26 30.1396 13.4272 30.1396 12.4C30.1396 11.3727 30.9724 10.54 31.9996 10.54C33.0268 10.54 33.8596 11.3727 33.8596 12.4Z" stroke="#E4E5E7" stroke-width="1.08"/>
<mask id="path-3-inside-1_6078_21430" fill="white">
<path d="M28.4004 19.6C28.4004 17.6118 30.0122 16 32.0004 16C33.9886 16 35.6004 17.6118 35.6004 19.6V21.5384C35.6004 21.7933 35.3937 22 35.1388 22H28.8619C28.607 22 28.4004 21.7933 28.4004 21.5384V19.6Z"/>
</mask>
<path d="M28.4004 19.6C28.4004 17.6118 30.0122 16 32.0004 16C33.9886 16 35.6004 17.6118 35.6004 19.6V21.5384C35.6004 21.7933 35.3937 22 35.1388 22H28.8619C28.607 22 28.4004 21.7933 28.4004 21.5384V19.6Z" stroke="#E4E5E7" stroke-width="2.15999" mask="url(#path-3-inside-1_6078_21430)"/>
<path d="M49.1591 11.7727H50.0795L53.2457 19.375H53.3224L56.4886 11.7727H57.4091V20.5H56.6591V13.456H56.5909L53.6463 20.5H52.9219L49.9773 13.456H49.9091V20.5H49.1591V11.7727ZM62.1158 20.6364C61.5504 20.6364 61.0504 20.4929 60.6158 20.206C60.1839 19.919 59.8459 19.5227 59.6016 19.017C59.3572 18.5085 59.2351 17.9219 59.2351 17.2571C59.2351 16.5866 59.3572 15.9972 59.6016 15.4886C59.8459 14.9773 60.1839 14.5795 60.6158 14.2955C61.0504 14.0085 61.5504 13.8651 62.1158 13.8651C62.6811 13.8651 63.1797 14.0085 63.6115 14.2955C64.0433 14.5824 64.3814 14.9801 64.6257 15.4886C64.8729 15.9972 64.9964 16.5866 64.9964 17.2571C64.9964 17.9219 64.8743 18.5085 64.63 19.017C64.3857 19.5227 64.0462 19.919 63.6115 20.206C63.1797 20.4929 62.6811 20.6364 62.1158 20.6364ZM62.1158 19.9418C62.5703 19.9418 62.9553 19.8196 63.2706 19.5753C63.5859 19.331 63.8246 19.0057 63.9865 18.5994C64.1513 18.1932 64.2337 17.7457 64.2337 17.2571C64.2337 16.7685 64.1513 16.3196 63.9865 15.9105C63.8246 15.5014 63.5859 15.1733 63.2706 14.9261C62.9553 14.679 62.5703 14.5554 62.1158 14.5554C61.6641 14.5554 61.2791 14.679 60.9609 14.9261C60.6456 15.1733 60.4055 15.5014 60.2408 15.9105C60.0788 16.3196 59.9979 16.7685 59.9979 17.2571C59.9979 17.7457 60.0788 18.1932 60.2408 18.5994C60.4055 19.0057 60.6456 19.331 60.9609 19.5753C61.2763 19.8196 61.6612 19.9418 62.1158 19.9418ZM69.0181 20.6364C68.4812 20.6364 68.011 20.4943 67.6076 20.2102C67.2042 19.9261 66.8888 19.5298 66.6616 19.0213C66.4371 18.5128 66.3249 17.9205 66.3249 17.2443C66.3249 16.571 66.4371 15.9815 66.6616 15.4759C66.8888 14.9673 67.2056 14.5724 67.6119 14.2912C68.0181 14.0071 68.4911 13.8651 69.0309 13.8651C69.4286 13.8651 69.7596 13.9361 70.0238 14.0781C70.288 14.2173 70.4996 14.3906 70.6587 14.598C70.8178 14.8054 70.9414 15.0071 71.0295 15.2031H71.0977V11.7727H71.8604V20.5H71.119V19.2855H71.0295C70.9414 19.4844 70.8164 19.6889 70.6545 19.8991C70.4925 20.1065 70.2781 20.2812 70.011 20.4233C69.7468 20.5653 69.4158 20.6364 69.0181 20.6364ZM69.1076 19.9418C69.5309 19.9418 69.8917 19.8267 70.19 19.5966C70.4883 19.3636 70.7156 19.044 70.8718 18.6378C71.0309 18.2287 71.1104 17.7599 71.1104 17.2315C71.1104 16.7088 71.0323 16.2472 70.8761 15.8466C70.7198 15.4432 70.4925 15.1278 70.1942 14.9006C69.896 14.6705 69.5337 14.5554 69.1076 14.5554C68.6701 14.5554 68.3008 14.6747 67.9996 14.9134C67.7013 15.1491 67.4741 15.4687 67.3178 15.8722C67.1644 16.2756 67.0877 16.7287 67.0877 17.2315C67.0877 17.7401 67.1658 18.1989 67.3221 18.608C67.4783 19.017 67.7056 19.3423 68.0039 19.5838C68.305 19.8224 68.6729 19.9418 69.1076 19.9418ZM76.6673 20.6364C76.0565 20.6364 75.5281 20.4943 75.082 20.2102C74.636 19.9233 74.2908 19.527 74.0465 19.0213C73.805 18.5128 73.6843 17.9276 73.6843 17.2656C73.6843 16.6065 73.805 16.0213 74.0465 15.5099C74.2908 14.9957 74.6275 14.5937 75.0565 14.304C75.4883 14.0114 75.9869 13.8651 76.5522 13.8651C76.9073 13.8651 77.2496 13.9304 77.5792 14.0611C77.9087 14.1889 78.2042 14.3864 78.4656 14.6534C78.7298 14.9176 78.9386 15.2514 79.092 15.6548C79.2454 16.0554 79.3221 16.5298 79.3221 17.0781V17.4531H74.2085V16.7841H78.5465C78.5465 16.3636 78.4613 15.9858 78.2908 15.6506C78.1232 15.3125 77.8888 15.0455 77.5877 14.8494C77.2894 14.6534 76.9442 14.5554 76.5522 14.5554C76.1374 14.5554 75.7724 14.6662 75.457 14.8878C75.1417 15.1094 74.8945 15.402 74.7156 15.7656C74.5394 16.1293 74.4499 16.527 74.4471 16.9588V17.3594C74.4471 17.8793 74.5366 18.3338 74.7156 18.723C74.8974 19.1094 75.1545 19.4091 75.4869 19.6222C75.8192 19.8352 76.2127 19.9418 76.6673 19.9418C76.9769 19.9418 77.2482 19.8935 77.4812 19.7969C77.717 19.7003 77.9144 19.571 78.0735 19.4091C78.2354 19.2443 78.3576 19.0639 78.44 18.8679L79.1602 19.1023C79.0607 19.3778 78.8974 19.6321 78.6701 19.8651C78.4457 20.098 78.1644 20.2855 77.8263 20.4276C77.4911 20.5668 77.1048 20.6364 76.6673 20.6364ZM81.7521 11.7727V20.5H80.9936V11.7727H81.7521Z" fill="#E4E5E7"/>
<path d="M12.6 48C12.6 46.1222 14.1222 44.6 16 44.6C17.8778 44.6 19.4 46.1222 19.4 48C19.4 49.8778 17.8778 51.4 16 51.4C14.1222 51.4 12.6 49.8778 12.6 48Z" stroke="#E4E5E7" stroke-width="1.2"/>
<path d="M33.1591 43.7727H34.0795L37.2457 51.375H37.3224L40.4886 43.7727H41.4091V52.5H40.6591V45.456H40.5909L37.6463 52.5H36.9219L33.9773 45.456H33.9091V52.5H33.1591V43.7727ZM46.1158 52.6364C45.5504 52.6364 45.0504 52.4929 44.6158 52.206C44.1839 51.919 43.8459 51.5227 43.6016 51.017C43.3572 50.5085 43.2351 49.9219 43.2351 49.2571C43.2351 48.5866 43.3572 47.9972 43.6016 47.4886C43.8459 46.9773 44.1839 46.5795 44.6158 46.2955C45.0504 46.0085 45.5504 45.8651 46.1158 45.8651C46.6811 45.8651 47.1797 46.0085 47.6115 46.2955C48.0433 46.5824 48.3814 46.9801 48.6257 47.4886C48.8729 47.9972 48.9964 48.5866 48.9964 49.2571C48.9964 49.9219 48.8743 50.5085 48.63 51.017C48.3857 51.5227 48.0462 51.919 47.6115 52.206C47.1797 52.4929 46.6811 52.6364 46.1158 52.6364ZM46.1158 51.9418C46.5703 51.9418 46.9553 51.8196 47.2706 51.5753C47.5859 51.331 47.8246 51.0057 47.9865 50.5994C48.1513 50.1932 48.2337 49.7457 48.2337 49.2571C48.2337 48.7685 48.1513 48.3196 47.9865 47.9105C47.8246 47.5014 47.5859 47.1733 47.2706 46.9261C46.9553 46.679 46.5703 46.5554 46.1158 46.5554C45.6641 46.5554 45.2791 46.679 44.9609 46.9261C44.6456 47.1733 44.4055 47.5014 44.2408 47.9105C44.0788 48.3196 43.9979 48.7685 43.9979 49.2571C43.9979 49.7457 44.0788 50.1932 44.2408 50.5994C44.4055 51.0057 44.6456 51.331 44.9609 51.5753C45.2763 51.8196 45.6612 51.9418 46.1158 51.9418ZM53.2397 45.9545V46.6151H50.1161V45.9545H53.2397ZM51.092 44.3864H51.8548V50.7912C51.8548 51.0639 51.9016 51.2784 51.9954 51.4347C52.0891 51.5881 52.2113 51.6974 52.3619 51.7628C52.5124 51.8253 52.6729 51.8565 52.8434 51.8565C52.9428 51.8565 53.0281 51.8509 53.0991 51.8395C53.1701 51.8253 53.2326 51.8111 53.2866 51.7969L53.4485 52.483C53.3746 52.5114 53.2837 52.5369 53.1758 52.5597C53.0678 52.5852 52.9343 52.598 52.7752 52.598C52.4968 52.598 52.2283 52.5369 51.9698 52.4148C51.7141 52.2926 51.5039 52.1108 51.3391 51.8693C51.1744 51.6278 51.092 51.3281 51.092 50.9702V44.3864ZM54.9709 52.5V45.9545H55.7337V52.5H54.9709ZM55.3587 44.8295C55.2024 44.8295 55.0689 44.777 54.9581 44.6719C54.8473 44.5639 54.7919 44.4347 54.7919 44.2841C54.7919 44.1335 54.8473 44.0057 54.9581 43.9006C55.0689 43.7926 55.2024 43.7386 55.3587 43.7386C55.5149 43.7386 55.6484 43.7926 55.7592 43.9006C55.87 44.0057 55.9254 44.1335 55.9254 44.2841C55.9254 44.4347 55.87 44.5639 55.7592 44.6719C55.6484 44.777 55.5149 44.8295 55.3587 44.8295ZM60.2837 52.6364C59.7184 52.6364 59.2184 52.4929 58.7837 52.206C58.3519 51.919 58.0138 51.5227 57.7695 51.017C57.5252 50.5085 57.4031 49.9219 57.4031 49.2571C57.4031 48.5866 57.5252 47.9972 57.7695 47.4886C58.0138 46.9773 58.3519 46.5795 58.7837 46.2955C59.2184 46.0085 59.7184 45.8651 60.2837 45.8651C60.8491 45.8651 61.3477 46.0085 61.7795 46.2955C62.2113 46.5824 62.5494 46.9801 62.7937 47.4886C63.0408 47.9972 63.1644 48.5866 63.1644 49.2571C63.1644 49.9219 63.0423 50.5085 62.7979 51.017C62.5536 51.5227 62.2141 51.919 61.7795 52.206C61.3477 52.4929 60.8491 52.6364 60.2837 52.6364ZM60.2837 51.9418C60.7383 51.9418 61.1232 51.8196 61.4386 51.5753C61.7539 51.331 61.9925 51.0057 62.1545 50.5994C62.3192 50.1932 62.4016 49.7457 62.4016 49.2571C62.4016 48.7685 62.3192 48.3196 62.1545 47.9105C61.9925 47.5014 61.7539 47.1733 61.4386 46.9261C61.1232 46.679 60.7383 46.5554 60.2837 46.5554C59.832 46.5554 59.4471 46.679 59.1289 46.9261C58.8136 47.1733 58.5735 47.5014 58.4087 47.9105C58.2468 48.3196 58.1658 48.7685 58.1658 49.2571C58.1658 49.7457 58.2468 50.1932 58.4087 50.5994C58.5735 51.0057 58.8136 51.331 59.1289 51.5753C59.4442 51.8196 59.8292 51.9418 60.2837 51.9418ZM65.5881 48.4091V52.5H64.8295V45.9545H65.5668V46.9815H65.6349C65.7884 46.6463 66.027 46.3778 66.3509 46.1761C66.6776 45.9716 67.081 45.8693 67.5611 45.8693C68.0014 45.8693 68.3878 45.9616 68.7202 46.1463C69.0554 46.3281 69.3153 46.5966 69.5 46.9517C69.6875 47.3068 69.7812 47.7429 69.7812 48.2599V52.5H69.0227V48.3068C69.0227 47.7699 68.8722 47.3452 68.571 47.0327C68.2727 46.7202 67.8722 46.5639 67.3693 46.5639C67.0256 46.5639 66.7202 46.6378 66.4531 46.7855C66.1861 46.9332 65.9744 47.1463 65.8182 47.4247C65.6648 47.7003 65.5881 48.0284 65.5881 48.4091Z" fill="#E4E5E7"/>
<rect x="0.5" y="32.5" width="259" height="31" stroke="#258CF4"/>
<path d="M113.196 39.0195C112.655 38.9112 112.128 39.2624 112.019 39.804C111.911 40.3456 112.262 40.8724 112.804 40.9807L113.196 39.0195ZM103.445 17.1679C102.986 17.4743 102.862 18.0952 103.168 18.5547L108.16 26.0432C108.467 26.5027 109.087 26.6269 109.547 26.3205C110.006 26.0142 110.131 25.3933 109.824 24.9338L105.387 18.2774L112.043 13.8398C112.503 13.5334 112.627 12.9126 112.321 12.453C112.014 11.9935 111.393 11.8693 110.934 12.1757L103.445 17.1679ZM113 40.0001C112.804 40.9807 112.804 40.9808 112.805 40.9809C112.805 40.9809 112.806 40.9811 112.806 40.9811C112.807 40.9813 112.808 40.9815 112.809 40.9818C112.812 40.9823 112.815 40.9829 112.819 40.9836C112.826 40.985 112.836 40.9868 112.848 40.9891C112.872 40.9935 112.906 40.9995 112.948 41.0066C113.033 41.0207 113.153 41.0391 113.304 41.0584C113.604 41.0969 114.028 41.139 114.537 41.1558C115.548 41.1892 116.928 41.1242 118.343 40.7097C119.765 40.2935 121.254 39.5152 122.419 38.106C123.589 36.6917 124.365 34.7236 124.499 32.0499L122.501 31.9501C122.385 34.2763 121.724 35.8082 120.878 36.8315C120.027 37.8598 118.922 38.4565 117.782 38.7903C116.635 39.1259 115.483 39.1859 114.603 39.1569C114.167 39.1424 113.806 39.1064 113.558 39.0746C113.434 39.0587 113.338 39.044 113.277 39.0337C113.246 39.0285 113.223 39.0245 113.209 39.022C113.203 39.0207 113.198 39.0199 113.196 39.0194C113.195 39.0192 113.194 39.0191 113.194 39.0191C113.194 39.0191 113.194 39.0192 113.195 39.0192C113.195 39.0193 113.195 39.0193 113.195 39.0194C113.196 39.0194 113.196 39.0195 113 40.0001ZM124.499 32.0499C124.642 29.1755 123.3 26.7899 121.367 24.8821C119.443 22.9837 116.871 21.4879 114.352 20.3401C111.823 19.1875 109.288 18.3591 107.391 17.8194C106.441 17.5491 105.647 17.35 105.088 17.2182C104.809 17.1522 104.588 17.103 104.436 17.0701C104.36 17.0536 104.302 17.0412 104.261 17.0328C104.241 17.0286 104.225 17.0253 104.214 17.0231C104.209 17.022 104.205 17.0211 104.202 17.0205C104.2 17.0202 104.199 17.02 104.198 17.0198C104.198 17.0197 104.197 17.0196 104.197 17.0196C104.196 17.0195 104.196 17.0194 104 18C103.804 18.9806 103.804 18.9806 103.804 18.9805C103.804 18.9805 103.804 18.9805 103.804 18.9806C103.804 18.9806 103.805 18.9808 103.806 18.9809C103.807 18.9813 103.81 18.9819 103.815 18.9828C103.823 18.9845 103.836 18.9871 103.854 18.9908C103.889 18.9981 103.942 19.0094 104.013 19.0247C104.153 19.0552 104.362 19.1017 104.629 19.1646C105.162 19.2906 105.926 19.4822 106.844 19.7431C108.681 20.2659 111.115 21.0625 113.523 22.16C115.941 23.2621 118.276 24.6413 119.962 26.3055C121.638 27.9601 122.608 29.8246 122.501 31.9501L124.499 32.0499Z" fill="#0F88FF"/>
</svg>
