<svg width="239" height="48" viewBox="0 0 239 48" fill="none" xmlns="http://www.w3.org/2000/svg">
<rect width="239" height="48" fill="#202122"/>
<path d="M17.6818 12.3182C17.8575 12.1425 17.8575 11.8575 17.6818 11.6818L14.7682 8.7682C14.4847 8.48471 14 8.68549 14 9.0864L14 14.9136C14 15.3145 14.4847 15.5153 14.7682 15.2318L17.6818 12.3182Z" fill="#D3D3D3"/>
<path d="M33.8599 8.39999C33.8599 9.42724 33.0272 10.26 31.9999 10.26C30.9727 10.26 30.1399 9.42724 30.1399 8.39999C30.1399 7.37275 30.9727 6.54 31.9999 6.54C33.0272 6.54 33.8599 7.37275 33.8599 8.39999Z" stroke="#F4F4F4" stroke-width="1.08"/>
<mask id="path-3-inside-1_3093_21973" fill="white">
<path d="M28.4 15.6C28.4 13.6118 30.0118 12 32 12V12C33.9882 12 35.6 13.6118 35.6 15.6V17.5384C35.6 17.7933 35.3934 18 35.1385 18H28.8616C28.6067 18 28.4 17.7933 28.4 17.5384V15.6Z"/>
</mask>
<path d="M28.4 15.6C28.4 13.6118 30.0118 12 32 12V12C33.9882 12 35.6 13.6118 35.6 15.6V17.5384C35.6 17.7933 35.3934 18 35.1385 18H28.8616C28.6067 18 28.4 17.7933 28.4 17.5384V15.6Z" stroke="#F4F4F4" stroke-width="2.15999" mask="url(#path-3-inside-1_3093_21973)"/>
<path d="M48.9688 16.5V8.5H49.9375V12.4687H50.0313L53.625 8.5H54.8906L51.5313 12.1094L54.8906 16.5H53.7188L50.9375 12.7812L49.9375 13.9062V16.5H48.9688ZM56.9414 12.8906V16.5H56.0195V10.5H56.9102V11.4375H56.9883C57.1289 11.1328 57.3424 10.888 57.6289 10.7031C57.9154 10.5156 58.2852 10.4219 58.7383 10.4219C59.1445 10.4219 59.5 10.5052 59.8047 10.6719C60.1094 10.8359 60.3464 11.0859 60.5156 11.4219C60.6849 11.7552 60.7695 12.1771 60.7695 12.6875V16.5H59.8477V12.75C59.8477 12.2786 59.7253 11.9115 59.4805 11.6484C59.2357 11.3828 58.8997 11.25 58.4727 11.25C58.1784 11.25 57.9154 11.3138 57.6836 11.4414C57.4544 11.569 57.2734 11.7552 57.1406 12C57.0078 12.2448 56.9414 12.5417 56.9414 12.8906ZM62.4541 16.5V10.5H63.376V16.5H62.4541ZM62.9229 9.5C62.7432 9.5 62.5882 9.4388 62.458 9.31641C62.3304 9.19401 62.2666 9.04688 62.2666 8.875C62.2666 8.70313 62.3304 8.55599 62.458 8.43359C62.5882 8.3112 62.7432 8.25 62.9229 8.25C63.1025 8.25 63.2562 8.3112 63.3838 8.43359C63.514 8.55599 63.5791 8.70313 63.5791 8.875C63.5791 9.04688 63.514 9.19401 63.3838 9.31641C63.2562 9.4388 63.1025 9.5 62.9229 9.5ZM67.4863 18.875C67.041 18.875 66.6582 18.8177 66.3379 18.7031C66.0176 18.5911 65.7507 18.4427 65.5371 18.2578C65.3262 18.0755 65.1582 17.8802 65.0332 17.6719L65.7676 17.1563C65.8509 17.2656 65.9564 17.3906 66.084 17.5312C66.2116 17.6745 66.3861 17.7982 66.6074 17.9023C66.8314 18.0091 67.1243 18.0625 67.4863 18.0625C67.9707 18.0625 68.3704 17.9453 68.6855 17.7109C69.0007 17.4766 69.1582 17.1094 69.1582 16.6094V15.3906H69.0801C69.0124 15.5 68.916 15.6354 68.791 15.7969C68.6686 15.9557 68.4915 16.0977 68.2598 16.2227C68.0306 16.3451 67.7207 16.4062 67.3301 16.4062C66.8457 16.4062 66.4108 16.2917 66.0254 16.0625C65.6426 15.8333 65.3392 15.5 65.1152 15.0625C64.8939 14.625 64.7832 14.0937 64.7832 13.4687C64.7832 12.8542 64.8913 12.319 65.1074 11.8633C65.3236 11.4049 65.6243 11.0508 66.0098 10.8008C66.3952 10.5482 66.8405 10.4219 67.3457 10.4219C67.7363 10.4219 68.0462 10.487 68.2754 10.6172C68.5072 10.7448 68.6842 10.8906 68.8066 11.0547C68.9316 11.2161 69.028 11.349 69.0957 11.4531H69.1895V10.5H70.0801V16.6719C70.0801 17.1875 69.9629 17.6068 69.7285 17.9297C69.4967 18.2552 69.1842 18.4935 68.791 18.6445C68.4004 18.7982 67.9655 18.875 67.4863 18.875ZM67.4551 15.5781C67.8249 15.5781 68.1374 15.4935 68.3926 15.3242C68.6478 15.1549 68.8418 14.9115 68.9746 14.5938C69.1074 14.276 69.1738 13.8958 69.1738 13.4531C69.1738 13.0208 69.1087 12.6393 68.9785 12.3086C68.8483 11.9779 68.6556 11.7187 68.4004 11.5312C68.1452 11.3437 67.8301 11.25 67.4551 11.25C67.0645 11.25 66.7389 11.349 66.4785 11.5469C66.2207 11.7448 66.0267 12.0104 65.8965 12.3438C65.7689 12.6771 65.7051 13.0469 65.7051 13.4531C65.7051 13.8698 65.7702 14.2383 65.9004 14.5586C66.0332 14.8763 66.2285 15.1263 66.4863 15.3086C66.7467 15.4883 67.0697 15.5781 67.4551 15.5781ZM72.6895 12.8906V16.5H71.7676V8.5H72.6895V11.4375H72.7676C72.9082 11.1276 73.1191 10.8815 73.4004 10.6992C73.6842 10.5143 74.0618 10.4219 74.5332 10.4219C74.9421 10.4219 75.3001 10.5039 75.6074 10.668C75.9147 10.8294 76.153 11.0781 76.3223 11.4141C76.4941 11.7474 76.5801 12.1719 76.5801 12.6875V16.5H75.6582V12.75C75.6582 12.2734 75.5345 11.9049 75.2871 11.6445C75.0423 11.3815 74.7025 11.25 74.2676 11.25C73.9655 11.25 73.6947 11.3138 73.4551 11.4414C73.2181 11.569 73.0306 11.7552 72.8926 12C72.7572 12.2448 72.6895 12.5417 72.6895 12.8906ZM80.876 10.5V11.2812H77.7666V10.5H80.876ZM78.6729 9.0625H79.5947V14.7812C79.5947 15.0417 79.6325 15.237 79.708 15.3672C79.7861 15.4948 79.8851 15.5807 80.0049 15.625C80.1273 15.6667 80.2562 15.6875 80.3916 15.6875C80.4932 15.6875 80.5765 15.6823 80.6416 15.6719C80.7067 15.6589 80.7588 15.6484 80.7979 15.6406L80.9854 16.4687C80.9229 16.4922 80.8356 16.5156 80.7236 16.5391C80.6117 16.5651 80.4697 16.5781 80.2979 16.5781C80.0374 16.5781 79.7822 16.5221 79.5322 16.4102C79.2848 16.2982 79.0791 16.1276 78.915 15.8984C78.7536 15.6693 78.6729 15.3802 78.6729 15.0312V9.0625ZM82.9346 16.5625C82.7419 16.5625 82.5765 16.4935 82.4385 16.3555C82.3005 16.2174 82.2314 16.0521 82.2314 15.8594C82.2314 15.6667 82.3005 15.5013 82.4385 15.3633C82.5765 15.2253 82.7419 15.1562 82.9346 15.1562C83.1273 15.1562 83.2926 15.2253 83.4307 15.3633C83.5687 15.5013 83.6377 15.6667 83.6377 15.8594C83.6377 15.987 83.6051 16.1042 83.54 16.2109C83.4775 16.3177 83.3929 16.4036 83.2861 16.4687C83.182 16.5313 83.0648 16.5625 82.9346 16.5625ZM87.7139 18.875C87.2686 18.875 86.8857 18.8177 86.5654 18.7031C86.2451 18.5911 85.9782 18.4427 85.7646 18.2578C85.5537 18.0755 85.3857 17.8802 85.2607 17.6719L85.9951 17.1563C86.0785 17.2656 86.1839 17.3906 86.3115 17.5312C86.4391 17.6745 86.6136 17.7982 86.835 17.9023C87.0589 18.0091 87.3519 18.0625 87.7139 18.0625C88.1982 18.0625 88.598 17.9453 88.9131 17.7109C89.2282 17.4766 89.3857 17.1094 89.3857 16.6094V15.3906H89.3076C89.2399 15.5 89.1436 15.6354 89.0186 15.7969C88.8962 15.9557 88.7191 16.0977 88.4873 16.2227C88.2581 16.3451 87.9482 16.4062 87.5576 16.4062C87.0732 16.4062 86.6383 16.2917 86.2529 16.0625C85.8701 15.8333 85.5667 15.5 85.3428 15.0625C85.1214 14.625 85.0107 14.0937 85.0107 13.4687C85.0107 12.8542 85.1188 12.319 85.335 11.8633C85.5511 11.4049 85.8519 11.0508 86.2373 10.8008C86.6227 10.5482 87.068 10.4219 87.5732 10.4219C87.9639 10.4219 88.2738 10.487 88.5029 10.6172C88.7347 10.7448 88.9118 10.8906 89.0342 11.0547C89.1592 11.2161 89.2555 11.349 89.3232 11.4531H89.417V10.5H90.3076V16.6719C90.3076 17.1875 90.1904 17.6068 89.9561 17.9297C89.7243 18.2552 89.4118 18.4935 89.0186 18.6445C88.6279 18.7982 88.193 18.875 87.7139 18.875ZM87.6826 15.5781C88.0524 15.5781 88.3649 15.4935 88.6201 15.3242C88.8753 15.1549 89.0693 14.9115 89.2021 14.5938C89.335 14.276 89.4014 13.8958 89.4014 13.4531C89.4014 13.0208 89.3363 12.6393 89.2061 12.3086C89.0758 11.9779 88.8831 11.7187 88.6279 11.5312C88.3727 11.3437 88.0576 11.25 87.6826 11.25C87.292 11.25 86.9665 11.349 86.7061 11.5469C86.4482 11.7448 86.2542 12.0104 86.124 12.3438C85.9964 12.6771 85.9326 13.0469 85.9326 13.4531C85.9326 13.8698 85.9977 14.2383 86.1279 14.5586C86.2607 14.8763 86.4561 15.1263 86.7139 15.3086C86.9743 15.4883 87.2972 15.5781 87.6826 15.5781ZM92.917 8.5V16.5H91.9951V8.5H92.917ZM94.7305 16.5V8.5H95.6523V11.4531H95.7305C95.7982 11.349 95.8919 11.2161 96.0117 11.0547C96.1341 10.8906 96.3086 10.7448 96.5352 10.6172C96.7643 10.487 97.0742 10.4219 97.4648 10.4219C97.9701 10.4219 98.4154 10.5482 98.8008 10.8008C99.1862 11.0534 99.487 11.4115 99.7031 11.875C99.9193 12.3385 100.027 12.8854 100.027 13.5156C100.027 14.151 99.9193 14.7018 99.7031 15.168C99.487 15.6315 99.1875 15.9909 98.8047 16.2461C98.4219 16.4987 97.9805 16.625 97.4805 16.625C97.0951 16.625 96.7865 16.5612 96.5547 16.4336C96.3229 16.3034 96.1445 16.1562 96.0195 15.9922C95.8945 15.8255 95.7982 15.6875 95.7305 15.5781H95.6211V16.5H94.7305ZM95.6367 13.5C95.6367 13.9531 95.7031 14.3529 95.8359 14.6992C95.9688 15.043 96.1628 15.3125 96.418 15.5078C96.6732 15.7005 96.9857 15.7969 97.3555 15.7969C97.7409 15.7969 98.0625 15.6953 98.3203 15.4922C98.5807 15.2865 98.776 15.0104 98.9063 14.6641C99.0391 14.3151 99.1055 13.9271 99.1055 13.5C99.1055 13.0781 99.0404 12.6979 98.9102 12.3594C98.7826 12.0182 98.5885 11.7487 98.3281 11.5508C98.0703 11.3503 97.7461 11.25 97.3555 11.25C96.9805 11.25 96.6654 11.3451 96.4102 11.5352C96.1549 11.7227 95.9622 11.9857 95.832 12.3242C95.7018 12.6602 95.6367 13.0521 95.6367 13.5Z" fill="#F4F4F4"/>
<path d="M14.2665 36C14.2665 34.1222 15.7887 32.6 17.6665 32.6C19.5443 32.6 21.0665 34.1222 21.0665 36C21.0665 37.8778 19.5443 39.4 17.6665 39.4C15.7887 39.4 14.2665 37.8778 14.2665 36Z" stroke="white" stroke-width="1.2"/>
<path d="M32.8438 40.5V34.5H33.7344V35.4375H33.8125C33.9375 35.1172 34.1393 34.8685 34.418 34.6914C34.6966 34.5117 35.0313 34.4219 35.4219 34.4219C35.8177 34.4219 36.1471 34.5117 36.4102 34.6914C36.6758 34.8685 36.8828 35.1172 37.0313 35.4375H37.0938C37.2474 35.1276 37.4779 34.8815 37.7852 34.6992C38.0924 34.5143 38.4609 34.4219 38.8906 34.4219C39.4271 34.4219 39.8659 34.5898 40.207 34.9258C40.5482 35.2591 40.7188 35.7786 40.7188 36.4844V40.5H39.7969V36.4844C39.7969 36.0417 39.6758 35.7253 39.4336 35.5352C39.1914 35.3451 38.9063 35.25 38.5781 35.25C38.1563 35.25 37.8294 35.3776 37.5977 35.6328C37.3659 35.8854 37.25 36.2057 37.25 36.5937V40.5H36.3125V36.3906C36.3125 36.0495 36.2018 35.7747 35.9805 35.5664C35.7591 35.3555 35.474 35.25 35.125 35.25C34.8854 35.25 34.6615 35.3138 34.4531 35.4414C34.2474 35.569 34.0807 35.7461 33.9531 35.9727C33.8281 36.1966 33.7656 36.4557 33.7656 36.75V40.5H32.8438ZM44.8418 40.625C44.3001 40.625 43.8249 40.4961 43.416 40.2383C43.0098 39.9805 42.6921 39.6198 42.4629 39.1562C42.2363 38.6927 42.123 38.151 42.123 37.5312C42.123 36.9062 42.2363 36.3607 42.4629 35.8945C42.6921 35.4284 43.0098 35.0664 43.416 34.8086C43.8249 34.5508 44.3001 34.4219 44.8418 34.4219C45.3835 34.4219 45.8574 34.5508 46.2637 34.8086C46.6725 35.0664 46.9902 35.4284 47.2168 35.8945C47.446 36.3607 47.5605 36.9062 47.5605 37.5312C47.5605 38.151 47.446 38.6927 47.2168 39.1562C46.9902 39.6198 46.6725 39.9805 46.2637 40.2383C45.8574 40.4961 45.3835 40.625 44.8418 40.625ZM44.8418 39.7969C45.2533 39.7969 45.5918 39.6914 45.8574 39.4805C46.123 39.2695 46.3197 38.9922 46.4473 38.6484C46.5749 38.3047 46.6387 37.9323 46.6387 37.5312C46.6387 37.1302 46.5749 36.7565 46.4473 36.4102C46.3197 36.0638 46.123 35.7839 45.8574 35.5703C45.5918 35.3568 45.2533 35.25 44.8418 35.25C44.4303 35.25 44.0918 35.3568 43.8262 35.5703C43.5605 35.7839 43.3639 36.0638 43.2363 36.4102C43.1087 36.7565 43.0449 37.1302 43.0449 37.5312C43.0449 37.9323 43.1087 38.3047 43.2363 38.6484C43.3639 38.9922 43.5605 39.2695 43.8262 39.4805C44.0918 39.6914 44.4303 39.7969 44.8418 39.7969ZM51.4053 40.625C50.8428 40.625 50.3584 40.4922 49.9521 40.2266C49.5459 39.9609 49.2334 39.5951 49.0146 39.1289C48.7959 38.6628 48.6865 38.1302 48.6865 37.5312C48.6865 36.9219 48.7985 36.3841 49.0225 35.918C49.249 35.4492 49.5641 35.0833 49.9678 34.8203C50.374 34.5547 50.848 34.4219 51.3896 34.4219C51.8115 34.4219 52.1917 34.5 52.5303 34.6562C52.8688 34.8125 53.1462 35.0312 53.3623 35.3125C53.5785 35.5937 53.7126 35.9219 53.7646 36.2969H52.8428C52.7725 36.0234 52.6162 35.7812 52.374 35.5703C52.1344 35.3568 51.8115 35.25 51.4053 35.25C51.0459 35.25 50.7308 35.3437 50.46 35.5312C50.1917 35.7161 49.9821 35.9779 49.8311 36.3164C49.6826 36.6523 49.6084 37.0469 49.6084 37.5C49.6084 37.9635 49.6813 38.3672 49.8271 38.7109C49.9756 39.0547 50.1839 39.3216 50.4521 39.5117C50.723 39.7018 51.0407 39.7969 51.4053 39.7969C51.6449 39.7969 51.8623 39.7552 52.0576 39.6719C52.2529 39.5885 52.4183 39.4688 52.5537 39.3125C52.6891 39.1562 52.7855 38.9687 52.8428 38.75H53.7646C53.7126 39.1042 53.5837 39.4232 53.3779 39.707C53.1748 39.9883 52.9053 40.2122 52.5693 40.3789C52.236 40.543 51.848 40.625 51.4053 40.625ZM56.8779 40.6406C56.4977 40.6406 56.1527 40.569 55.8428 40.4258C55.5329 40.2799 55.2868 40.0703 55.1045 39.7969C54.9222 39.5208 54.8311 39.1875 54.8311 38.7969C54.8311 38.4531 54.8988 38.1745 55.0342 37.9609C55.1696 37.7448 55.3506 37.5755 55.5771 37.4531C55.8037 37.3307 56.0537 37.2396 56.3271 37.1797C56.6032 37.1172 56.8805 37.0677 57.1592 37.0313C57.5238 36.9844 57.8193 36.9492 58.0459 36.9258C58.2751 36.8997 58.4417 36.8568 58.5459 36.7969C58.6527 36.737 58.7061 36.6328 58.7061 36.4844V36.4531C58.7061 36.0677 58.6006 35.7682 58.3896 35.5547C58.1813 35.3411 57.8649 35.2344 57.4404 35.2344C57.0003 35.2344 56.6553 35.3307 56.4053 35.5234C56.1553 35.7161 55.9795 35.9219 55.8779 36.1406L55.0029 35.8281C55.1592 35.4635 55.3675 35.1797 55.6279 34.9766C55.891 34.7708 56.1774 34.6276 56.4873 34.5469C56.7998 34.4635 57.1071 34.4219 57.4092 34.4219C57.6019 34.4219 57.8232 34.4453 58.0732 34.4922C58.3258 34.5365 58.5693 34.6289 58.8037 34.7695C59.0407 34.9102 59.2373 35.1224 59.3936 35.4062C59.5498 35.6901 59.6279 36.0703 59.6279 36.5469V40.5H58.7061V39.6875H58.6592C58.5967 39.8177 58.4925 39.957 58.3467 40.1055C58.2008 40.2539 58.0068 40.3802 57.7646 40.4844C57.5225 40.5885 57.2269 40.6406 56.8779 40.6406ZM57.0186 39.8125C57.3831 39.8125 57.6904 39.7409 57.9404 39.5977C58.193 39.4544 58.3831 39.2695 58.5107 39.043C58.641 38.8164 58.7061 38.5781 58.7061 38.3281V37.4844C58.667 37.5312 58.5811 37.5742 58.4482 37.6133C58.318 37.6497 58.167 37.6823 57.9951 37.7109C57.8258 37.737 57.6605 37.7604 57.499 37.7812C57.3402 37.7995 57.2113 37.8151 57.1123 37.8281C56.8727 37.8594 56.6488 37.9102 56.4404 37.9805C56.2347 38.0482 56.068 38.151 55.9404 38.2891C55.8154 38.4245 55.7529 38.6094 55.7529 38.8437C55.7529 39.1641 55.8714 39.4062 56.1084 39.5703C56.348 39.7318 56.6514 39.8125 57.0186 39.8125ZM61.3105 42.75V34.5H62.2012V35.4531H62.3105C62.3783 35.349 62.472 35.2161 62.5918 35.0547C62.7142 34.8906 62.8887 34.7448 63.1152 34.6172C63.3444 34.487 63.6543 34.4219 64.0449 34.4219C64.5501 34.4219 64.9954 34.5482 65.3809 34.8008C65.7663 35.0534 66.0671 35.4115 66.2832 35.875C66.4993 36.3385 66.6074 36.8854 66.6074 37.5156C66.6074 38.151 66.4993 38.7018 66.2832 39.168C66.0671 39.6315 65.7676 39.9909 65.3848 40.2461C65.002 40.4987 64.5605 40.625 64.0605 40.625C63.6751 40.625 63.3665 40.5612 63.1348 40.4336C62.903 40.3034 62.7246 40.1562 62.5996 39.9922C62.4746 39.8255 62.3783 39.6875 62.3105 39.5781H62.2324V42.75H61.3105ZM62.2168 37.5C62.2168 37.9531 62.2832 38.3529 62.416 38.6992C62.5488 39.043 62.7428 39.3125 62.998 39.5078C63.2533 39.7005 63.5658 39.7969 63.9355 39.7969C64.321 39.7969 64.6426 39.6953 64.9004 39.4922C65.1608 39.2865 65.3561 39.0104 65.4863 38.6641C65.6191 38.3151 65.6855 37.9271 65.6855 37.5C65.6855 37.0781 65.6204 36.6979 65.4902 36.3594C65.3626 36.0182 65.1686 35.7487 64.9082 35.5508C64.6504 35.3503 64.3262 35.25 63.9355 35.25C63.5605 35.25 63.2454 35.3451 62.9902 35.5352C62.735 35.7227 62.5423 35.9857 62.4121 36.3242C62.2819 36.6602 62.2168 37.0521 62.2168 37.5Z" fill="white"/>
<path d="M129.196 36.0195C128.655 35.9112 128.128 36.2624 128.019 36.804C127.911 37.3456 128.262 37.8724 128.804 37.9807L129.196 36.0195ZM119.445 14.1679C118.986 14.4743 118.862 15.0952 119.168 15.5547L124.16 23.0432C124.467 23.5027 125.087 23.6269 125.547 23.3205C126.006 23.0142 126.131 22.3933 125.824 21.9338L121.387 15.2774L128.043 10.8398C128.503 10.5334 128.627 9.91256 128.321 9.45303C128.014 8.99351 127.393 8.86933 126.934 9.17568L119.445 14.1679ZM129 37.0001C128.804 37.9807 128.804 37.9808 128.805 37.9809C128.805 37.9809 128.806 37.9811 128.806 37.9811C128.807 37.9813 128.808 37.9815 128.809 37.9818C128.812 37.9823 128.815 37.9829 128.819 37.9836C128.826 37.985 128.836 37.9868 128.848 37.9891C128.872 37.9935 128.906 37.9995 128.948 38.0066C129.033 38.0207 129.153 38.0391 129.304 38.0584C129.604 38.0969 130.028 38.139 130.537 38.1558C131.548 38.1892 132.928 38.1242 134.343 37.7097C135.765 37.2935 137.254 36.5152 138.419 35.106C139.589 33.6917 140.365 31.7236 140.499 29.0499L138.501 28.9501C138.385 31.2763 137.724 32.8082 136.878 33.8315C136.027 34.8598 134.922 35.4565 133.782 35.7903C132.635 36.1259 131.483 36.1859 130.603 36.1569C130.167 36.1424 129.806 36.1064 129.558 36.0746C129.434 36.0587 129.338 36.044 129.277 36.0337C129.246 36.0285 129.223 36.0245 129.209 36.022C129.203 36.0207 129.198 36.0199 129.196 36.0194C129.195 36.0192 129.194 36.0191 129.194 36.0191C129.194 36.0191 129.194 36.0192 129.195 36.0192C129.195 36.0193 129.195 36.0193 129.195 36.0194C129.196 36.0194 129.196 36.0195 129 37.0001ZM140.499 29.0499C140.642 26.1755 139.3 23.7899 137.367 21.8821C135.443 19.9837 132.871 18.4879 130.352 17.3401C127.823 16.1875 125.288 15.3591 123.391 14.8194C122.441 14.5491 121.647 14.35 121.088 14.2182C120.809 14.1522 120.588 14.103 120.436 14.0701C120.36 14.0536 120.302 14.0412 120.261 14.0328C120.241 14.0286 120.225 14.0253 120.214 14.0231C120.209 14.022 120.205 14.0211 120.202 14.0205C120.2 14.0202 120.199 14.02 120.198 14.0198C120.198 14.0197 120.197 14.0196 120.197 14.0196C120.196 14.0195 120.196 14.0194 120 15C119.804 15.9806 119.804 15.9806 119.804 15.9805C119.804 15.9805 119.804 15.9805 119.804 15.9806C119.804 15.9806 119.805 15.9808 119.806 15.9809C119.807 15.9813 119.81 15.9819 119.815 15.9828C119.823 15.9845 119.836 15.9871 119.854 15.9908C119.889 15.9981 119.942 16.0094 120.013 16.0247C120.153 16.0552 120.362 16.1017 120.629 16.1646C121.162 16.2906 121.926 16.4822 122.844 16.7431C124.681 17.2659 127.115 18.0625 129.523 19.16C131.941 20.2621 134.276 21.6413 135.962 23.3055C137.638 24.9601 138.608 26.8246 138.501 28.9501L140.499 29.0499Z" fill="#0F88FF"/>
</svg>
