<svg width="268" height="163" viewBox="0 0 268 163" fill="none" xmlns="http://www.w3.org/2000/svg">
<g clip-path="url(#clip0_6928_23620)">
<rect width="268" height="163" rx="4" fill="#27292B"/>
<circle cx="127.171" cy="41.3068" r="7.95039" fill="#798086" stroke="#55A6F6"/>
<path d="M137.994 78.3712C137.994 79.6096 137.639 80.4427 137.038 81.1935C136.531 81.8271 135.861 82.393 135.037 83.0885C134.845 83.2508 134.645 83.4202 134.436 83.5992C133.978 83.8963 133.51 84.1975 133.03 84.5058C128.971 87.1162 124.127 90.2314 118.207 95.5834C112.337 100.89 107.952 106.496 104.807 110.656C104.5 111.062 104.205 111.453 103.923 111.828C102.751 113.384 101.787 114.666 100.999 115.58C100.508 116.149 100.111 116.545 99.7971 116.772C99.6882 116.851 99.6048 116.899 99.5423 116.927C99.3794 116.303 99.4146 115.346 99.7019 114.06C100.033 112.579 100.674 110.76 101.582 108.713C103.396 104.622 106.248 99.6778 109.708 94.8033C113.167 89.929 117.222 85.1405 121.435 81.354C125.658 77.5592 129.995 74.8103 134.018 73.9457L133.913 73.4569L134.018 73.9457C135.087 73.716 136.057 74.1575 136.792 75.0138C137.533 75.8774 137.994 77.1276 137.994 78.3712Z" fill="#798086" stroke="#55A6F6"/>
<path d="M156.028 93.4946L156.042 93.5209L156.06 93.5453C159.663 98.604 165.02 101.845 169.38 104.017C170.767 104.708 172.081 105.303 173.198 105.808C173.823 106.092 174.387 106.347 174.867 106.575C175.553 106.902 176.064 107.171 176.388 107.398C176.531 107.498 176.614 107.574 176.658 107.626C176.592 107.752 176.391 107.927 175.825 108.042C175.189 108.172 174.271 108.182 173.125 108.065C170.844 107.832 167.791 107.107 164.579 105.994C161.369 104.882 158.024 103.39 155.156 101.637C152.278 99.877 149.925 97.8804 148.645 95.7758C146.974 93.0299 145.503 89.2376 144.727 85.4249C143.95 81.6103 143.885 77.8551 144.938 75.1273C145.912 73.2252 148.445 72.4786 150.655 73.5927C151.798 74.169 152.476 74.808 152.919 75.6235C153.372 76.4584 153.603 77.523 153.759 79.0057C153.856 79.9199 153.866 80.9341 153.869 82.0467C153.869 82.1372 153.87 82.2283 153.87 82.32C153.872 83.3477 153.875 84.449 153.943 85.5897C154.092 88.0806 154.554 90.7934 156.028 93.4946Z" fill="#798086" stroke="#55A6F6"/>
<path d="M143.272 48.2652C143.759 49.0563 144.507 49.5051 145.301 49.7287C146.101 49.9543 146.916 49.9408 147.469 49.8303C148.522 49.6198 150.847 49.5325 153.344 49.7281C155.83 49.9228 158.588 50.405 160.489 51.3896C162.701 52.3255 163.906 53.9457 164.474 55.8165C165.037 57.6689 164.972 59.756 164.698 61.6651C164.446 63.4258 164.007 65.0783 163.682 66.3042C163.653 66.4107 163.626 66.5139 163.6 66.6137C163.503 66.9807 163.423 67.2914 163.365 67.5448C163.538 67.3996 163.733 67.2113 163.948 66.9752C164.443 66.4308 164.992 65.6864 165.537 64.7889C166.627 62.9935 167.675 60.6232 168.228 58.0932C168.781 55.5616 168.831 52.903 167.967 50.5051C167.111 48.1292 165.342 45.9653 162.171 44.4157C158.313 43.1515 154.563 42.4974 151.417 42.3839C148.238 42.2691 145.76 42.7097 144.393 43.5511C142.782 44.5433 142.28 46.6538 143.272 48.2652Z" fill="#798086" stroke="#55A6F6"/>
<path d="M124.328 55.0857C123.436 54.7418 122.735 54.7841 122.009 55.0417C121.39 55.2618 120.77 55.6295 119.999 56.0874C119.826 56.1899 119.646 56.297 119.456 56.4079C118.859 56.9799 117.247 58.4195 115.283 59.8163C113.291 61.2327 110.863 62.6592 108.738 63.0316C106.411 63.6273 104.47 63.0687 102.885 61.9244C101.315 60.7914 100.102 59.0922 99.1633 57.4073C98.2976 55.8535 97.6452 54.2731 97.1613 53.1007C97.1192 52.9989 97.0785 52.9001 97.039 52.8048C96.879 52.4188 96.7441 52.0996 96.6292 51.8523C96.5529 52.0709 96.4802 52.3346 96.417 52.6419C96.2844 53.2872 96.2014 54.0862 96.2012 54.9825C96.2009 56.7765 96.5326 58.9275 97.4302 60.9813C98.326 63.0309 99.783 64.9792 102.037 66.3925C104.286 67.8024 107.362 68.7011 111.534 68.6025C118.214 67.5858 122.96 64.7185 126.309 59.4702C126.958 57.7161 126.078 55.7607 124.328 55.0857Z" fill="#798086" stroke="#55A6F6"/>
<path d="M131.378 58.3322C129.863 55.7104 130.76 52.3568 133.381 50.8416C136.557 49.0061 140.605 50.7467 141.458 54.3145L144.439 66.7927C144.799 68.2991 144.159 69.8675 142.847 70.6914C141.113 71.7807 138.822 71.2128 137.797 69.44L131.378 58.3322Z" fill="#798086" stroke="#55A6F6"/>
<mask id="path-8-inside-1_6928_23620" fill="white">
<path fill-rule="evenodd" clip-rule="evenodd" d="M125.534 132.512C125.534 130.855 126.877 129.512 128.534 129.512H139.466C141.123 129.512 142.466 130.855 142.466 132.512V133.764C142.466 134.342 142.303 134.883 142.019 135.341H148.734C150.39 135.341 151.734 136.684 151.734 138.341V143.192C151.734 144.849 150.39 146.192 148.734 146.192H146.622L183.343 182.913C184.515 184.084 184.515 185.984 183.343 187.155L179.913 190.585C178.742 191.757 176.842 191.757 175.671 190.585L139.426 154.34V180.825C139.426 182.482 138.082 183.825 136.426 183.825H131.575C129.918 183.825 128.575 182.482 128.575 180.825V153.851L93.5885 188.837C92.4169 190.009 90.5174 190.009 89.3459 188.837L85.9158 185.407C84.7442 184.236 84.7442 182.336 85.9158 181.164L120.889 146.192H119.267C117.61 146.192 116.267 144.849 116.267 143.192V138.341C116.267 136.684 117.61 135.341 119.267 135.341H125.981C125.698 134.883 125.534 134.342 125.534 133.764V132.512Z"/>
</mask>
<path fill-rule="evenodd" clip-rule="evenodd" d="M125.534 132.512C125.534 130.855 126.877 129.512 128.534 129.512H139.466C141.123 129.512 142.466 130.855 142.466 132.512V133.764C142.466 134.342 142.303 134.883 142.019 135.341H148.734C150.39 135.341 151.734 136.684 151.734 138.341V143.192C151.734 144.849 150.39 146.192 148.734 146.192H146.622L183.343 182.913C184.515 184.084 184.515 185.984 183.343 187.155L179.913 190.585C178.742 191.757 176.842 191.757 175.671 190.585L139.426 154.34V180.825C139.426 182.482 138.082 183.825 136.426 183.825H131.575C129.918 183.825 128.575 182.482 128.575 180.825V153.851L93.5885 188.837C92.4169 190.009 90.5174 190.009 89.3459 188.837L85.9158 185.407C84.7442 184.236 84.7442 182.336 85.9158 181.164L120.889 146.192H119.267C117.61 146.192 116.267 144.849 116.267 143.192V138.341C116.267 136.684 117.61 135.341 119.267 135.341H125.981C125.698 134.883 125.534 134.342 125.534 133.764V132.512Z" fill="#303336"/>
<path d="M142.019 135.341L141.169 134.814L140.224 136.341H142.019V135.341ZM146.622 146.192V145.192H144.208L145.915 146.899L146.622 146.192ZM183.343 182.913L184.05 182.205V182.205L183.343 182.913ZM183.343 187.155L184.05 187.862V187.862L183.343 187.155ZM179.913 190.585L180.62 191.292L179.913 190.585ZM175.671 190.585L174.963 191.292L175.671 190.585ZM139.426 154.34L140.133 153.633L138.426 151.926V154.34H139.426ZM128.575 153.851H129.575V151.437L127.868 153.144L128.575 153.851ZM93.5885 188.837L94.2956 189.544H94.2956L93.5885 188.837ZM89.3459 188.837L88.6388 189.544H88.6388L89.3459 188.837ZM85.9158 185.407L85.2087 186.114H85.2087L85.9158 185.407ZM85.9158 181.164L85.2087 180.457H85.2087L85.9158 181.164ZM120.889 146.192L121.596 146.899L123.303 145.192H120.889V146.192ZM125.981 135.341V136.341H127.777L126.832 134.814L125.981 135.341ZM128.534 128.512C126.325 128.512 124.534 130.303 124.534 132.512H126.534C126.534 131.408 127.429 130.512 128.534 130.512V128.512ZM139.466 128.512H128.534V130.512H139.466V128.512ZM143.466 132.512C143.466 130.303 141.676 128.512 139.466 128.512V130.512C140.571 130.512 141.466 131.408 141.466 132.512H143.466ZM143.466 133.764V132.512H141.466V133.764H143.466ZM142.869 135.867C143.248 135.255 143.466 134.534 143.466 133.764H141.466C141.466 134.151 141.357 134.51 141.169 134.814L142.869 135.867ZM148.734 134.341H142.019V136.341H148.734V134.341ZM152.734 138.341C152.734 136.132 150.943 134.341 148.734 134.341V136.341C149.838 136.341 150.734 137.236 150.734 138.341H152.734ZM152.734 143.192V138.341H150.734V143.192H152.734ZM148.734 147.192C150.943 147.192 152.734 145.401 152.734 143.192H150.734C150.734 144.296 149.838 145.192 148.734 145.192V147.192ZM146.622 147.192H148.734V145.192H146.622V147.192ZM184.05 182.205L147.33 145.485L145.915 146.899L182.636 183.62L184.05 182.205ZM184.05 187.862C185.612 186.3 185.612 183.767 184.05 182.205L182.636 183.62C183.417 184.401 183.417 185.667 182.636 186.448L184.05 187.862ZM180.62 191.292L184.05 187.862L182.636 186.448L179.206 189.878L180.62 191.292ZM174.963 191.292C176.526 192.854 179.058 192.854 180.62 191.292L179.206 189.878C178.425 190.659 177.159 190.659 176.378 189.878L174.963 191.292ZM138.718 155.047L174.963 191.292L176.378 189.878L140.133 153.633L138.718 155.047ZM140.426 180.825V154.34H138.426V180.825H140.426ZM136.426 184.825C138.635 184.825 140.426 183.034 140.426 180.825H138.426C138.426 181.929 137.53 182.825 136.426 182.825V184.825ZM131.575 184.825H136.426V182.825H131.575V184.825ZM127.575 180.825C127.575 183.034 129.366 184.825 131.575 184.825V182.825C130.47 182.825 129.575 181.929 129.575 180.825H127.575ZM127.575 153.851V180.825H129.575V153.851H127.575ZM94.2956 189.544L129.282 154.558L127.868 153.144L92.8814 188.13L94.2956 189.544ZM88.6388 189.544C90.2009 191.106 92.7335 191.106 94.2956 189.544L92.8814 188.13C92.1004 188.911 90.834 188.911 90.053 188.13L88.6388 189.544ZM85.2087 186.114L88.6388 189.544L90.053 188.13L86.6229 184.7L85.2087 186.114ZM85.2087 180.457C83.6466 182.019 83.6466 184.552 85.2087 186.114L86.6229 184.7C85.8418 183.919 85.8418 182.653 86.6229 181.872L85.2087 180.457ZM120.181 145.485L85.2087 180.457L86.6229 181.872L121.596 146.899L120.181 145.485ZM119.267 147.192H120.889V145.192H119.267V147.192ZM115.267 143.192C115.267 145.401 117.058 147.192 119.267 147.192V145.192C118.162 145.192 117.267 144.296 117.267 143.192H115.267ZM115.267 138.341V143.192H117.267V138.341H115.267ZM119.267 134.341C117.058 134.341 115.267 136.132 115.267 138.341H117.267C117.267 137.236 118.162 136.341 119.267 136.341V134.341ZM125.981 134.341H119.267V136.341H125.981V134.341ZM124.534 133.764C124.534 134.534 124.752 135.255 125.131 135.867L126.832 134.814C126.643 134.51 126.534 134.151 126.534 133.764H124.534ZM124.534 132.512V133.764H126.534V132.512H124.534Z" fill="#55A6F6" mask="url(#path-8-inside-1_6928_23620)"/>
<path fill-rule="evenodd" clip-rule="evenodd" d="M44.0449 20.1479C39.6266 20.1479 36.0449 23.7297 36.0449 28.148V121.512C36.0449 125.93 39.6266 129.512 44.0449 129.512H225.216C229.634 129.512 233.216 125.93 233.216 121.512V28.1479C233.216 23.7297 229.634 20.1479 225.216 20.1479H44.0449ZM49.0117 25.5581C45.698 25.5581 43.0117 28.2444 43.0117 31.5581V118.101C43.0117 121.415 45.698 124.101 49.0117 124.101H220.249C223.563 124.101 226.249 121.415 226.249 118.101V31.5581C226.249 28.2444 223.563 25.5581 220.249 25.5581H49.0117Z" fill="#494D50"/>
<circle cx="211.63" cy="74.8296" r="7.4585" fill="#DB575B"/>
</g>
<defs>
<clipPath id="clip0_6928_23620">
<rect width="268" height="163" rx="4" fill="white"/>
</clipPath>
</defs>
</svg>
