<svg viewBox="0 0 16 17" fill="none" xmlns="http://www.w3.org/2000/svg">
  <path fill-rule="evenodd" clip-rule="evenodd" d="M12.3731 6.68657C12.3731 9.82717 9.82717 12.3731 6.68657 12.3731C3.54596 12.3731 1 9.82717 1 6.68657C1 3.54596 3.54596 1 6.68657 1C9.82717 1 12.3731 3.54596 12.3731 6.68657ZM10.3306 12.2939C9.28233 12.9765 8.03077 13.3731 6.68657 13.3731C2.99368 13.3731 0 10.3795 0 6.68657C0 2.99368 2.99368 0 6.68657 0C10.3795 0 13.3731 2.99368 13.3731 6.68657C13.3731 8.50809 12.6448 10.1595 11.4634 11.3654C11.4866 11.3837 11.509 11.4035 11.5304 11.4249L14.8587 14.7533C15.1516 15.0461 15.1516 15.521 14.8587 15.8139C14.5658 16.1068 14.0909 16.1068 13.798 15.8139L10.4697 12.4856C10.4119 12.4278 10.3656 12.363 10.3306 12.2939Z" fill="currentColor"/>
</svg>
