<svg width="15" height="15" viewBox="0 0 15 15" fill="none" xmlns="http://www.w3.org/2000/svg">
<path fill-rule="evenodd" clip-rule="evenodd" d="M7.50781 13.4568C10.7939 13.4568 13.4578 10.7929 13.4578 7.50684C13.4578 4.22074 10.7939 1.55684 7.50781 1.55684C4.22172 1.55684 1.55781 4.22074 1.55781 7.50684C1.55781 10.7929 4.22172 13.4568 7.50781 13.4568ZM7.50781 14.5068C11.3738 14.5068 14.5078 11.3728 14.5078 7.50684C14.5078 3.64084 11.3738 0.506836 7.50781 0.506836C3.64182 0.506836 0.507812 3.64084 0.507812 7.50684C0.507812 11.3728 3.64182 14.5068 7.50781 14.5068Z" fill="#AFB2B6"/>
<path d="M7.50405 11.729C7.06913 11.729 6.71655 11.3764 6.71655 10.9415L6.71655 6.56648C6.71655 6.13156 7.06913 5.77898 7.50405 5.77898C7.93898 5.77898 8.29155 6.13156 8.29155 6.56648L8.29155 10.9415C8.29155 11.3764 7.93897 11.729 7.50405 11.729Z" fill="#AFB2B6"/>
<path d="M7.50405 3.06648C7.0208 3.06648 6.62905 3.45823 6.62905 3.94148C6.62905 4.42473 7.0208 4.81648 7.50405 4.81648C7.9873 4.81648 8.37905 4.42473 8.37905 3.94148C8.37905 3.45824 7.9873 3.06648 7.50405 3.06648Z" fill="#AFB2B6"/>
</svg>
