<svg viewBox="0 0 16 16" fill="none" xmlns="http://www.w3.org/2000/svg">
	<path fill-rule="evenodd" clip-rule="evenodd" d="M13.1316 6.15814C13.1316 3.78241 11.1967 1.85383 8.80096 1.86559L8.79882 1.8656H4.53892L9.95133 6.12932C9.96457 6.13975 9.97719 6.15094 9.98912 6.16283C10.21 6.38293 10.2981 6.70095 10.2981 6.97374V10.2014C11.9506 9.59566 13.1316 8.01107 13.1316 6.15814ZM8.79778 1.00006C11.6752 0.986522 14.0001 3.30402 14.0001 6.15814C14.0001 8.61764 12.2703 10.6792 9.96005 11.2019C9.83128 11.231 9.6962 11.2002 9.59301 11.1181C9.48981 11.036 9.42972 10.9115 9.42972 10.7799V6.97374C9.42972 6.87556 9.39964 6.81001 9.38263 6.78457L3.46379 2.12189C3.36655 2.04529 3.30678 1.93091 3.29957 1.80758C3.29235 1.68424 3.33836 1.56372 3.42601 1.47636L3.46497 1.43752C3.74189 1.16152 4.12538 1.00006 4.53837 1.00006H8.79778Z" fill="#D3D3D3" />
	<path fill-rule="evenodd" clip-rule="evenodd" d="M10.2979 10.2319V14.964C10.2979 15.3718 10.1291 15.7332 9.77551 15.906C9.44792 16.0661 9.07895 16.0042 8.78966 15.851L8.75338 15.8318L3.91663 11.9571C3.83047 11.8988 3.75861 11.8414 3.69937 11.7942L3.68714 11.7845L3.67928 11.7775C3.40725 11.5383 3.26246 11.2979 3.19989 11.1887L3.17856 11.1515L3.16496 11.1109C3.16306 11.1052 3.16204 11.1025 3.15953 11.096C3.15796 11.0919 3.1558 11.0863 3.15247 11.0775C3.14955 11.0697 3.14259 11.0512 3.1363 11.0297C3.13296 11.0182 3.12849 11.0016 3.12472 10.9816C3.12107 10.9622 3.1167 10.9325 3.1167 10.8964V10.4636H9.0097C9.27724 10.4514 9.51988 10.4166 9.76308 10.3588L10.2979 10.2319ZM9.42944 11.2968C9.30227 11.3123 9.17246 11.3229 9.03822 11.3287L9.02879 11.3291H4.51888L9.22878 15.1022C9.33453 15.1498 9.38995 15.1304 9.39326 15.1288C9.39433 15.1283 9.39461 15.1281 9.39507 15.1276C9.39554 15.1272 9.3986 15.1241 9.40295 15.116C9.41175 15.0996 9.42944 15.0546 9.42944 14.964V11.2968Z" fill="#D3D3D3" />
	<path fill-rule="evenodd" clip-rule="evenodd" d="M3.42604 1.47649C3.5818 1.32125 3.82951 1.30685 4.00232 1.44299L9.96061 6.13683C9.98053 6.15252 9.99903 6.16992 10.0159 6.18883C10.2006 6.39596 10.2981 6.68988 10.2981 6.97376V10.7806C10.2981 10.981 10.16 11.1552 9.96443 11.2016C9.66371 11.273 9.3508 11.3153 9.03927 11.3294C9.0327 11.3297 9.02613 11.3299 9.01956 11.3299L3.55085 11.3292C3.37927 11.3292 3.2238 11.2285 3.15412 11.0722C3.0815 10.9094 3.04523 10.7603 3.02813 10.5899C3.02713 10.58 3.02648 10.57 3.02618 10.56C3.02577 10.5569 3.02509 10.552 3.02385 10.5433L3.02361 10.5417C3.02213 10.5314 3.01966 10.5142 3.01767 10.4963C3.01563 10.478 3.0131 10.4507 3.01299 10.4195C3.01294 10.4186 3.01282 10.4167 3.01255 10.4135C3.01188 10.4057 3.01089 10.3966 3.00915 10.381L3.00896 10.3793C3.00746 10.3658 3.00531 10.3466 3.00362 10.3269C3.00184 10.3062 3 10.2791 3 10.2491V2.42969C3 2.41456 3.0008 2.39944 3.00239 2.38439C3.03765 2.0505 3.1796 1.72211 3.42604 1.47649ZM3.86842 2.45502C3.86899 2.45073 3.8696 2.44646 3.87025 2.4422L9.38089 6.7834C9.38891 6.79645 9.3983 6.81494 9.4069 6.83933C9.4211 6.87964 9.42964 6.92642 9.42964 6.97376V10.4235C9.29136 10.444 9.15064 10.4576 9.00946 10.4643L3.88924 10.4637C3.88734 10.4474 3.88514 10.4321 3.88378 10.4226L3.88354 10.4209C3.88239 10.4129 3.88173 10.4082 3.88131 10.405C3.8809 10.38 3.87932 10.3574 3.87779 10.3396C3.8761 10.3199 3.87395 10.3007 3.87245 10.2872L3.87226 10.2855C3.87052 10.2699 3.86953 10.2608 3.86886 10.253C3.86859 10.2499 3.86847 10.248 3.86842 10.2471V2.45502Z" fill="#D3D3D3" />
</svg>
