<svg viewBox="0 0 12 12" fill="none" xmlns="http://www.w3.org/2000/svg">
	<circle cx="6" cy="3" r="1.5" stroke="currentColor" />
	<mask id="path-2-inside-1" fill="currentColor">
		<path d="M3 9C3 7.34315 4.34315 6 6 6C7.65685 6 9 7.34315 9 9V10.6512C9 10.8438 8.84382 11 8.65116 11H3.34884C3.15618 11 3 10.8438 3 10.6512V9Z" />
	</mask>
	<path d="M3 9C3 7.34315 4.34315 6 6 6C7.65685 6 9 7.34315 9 9V10.6512C9 10.8438 8.84382 11 8.65116 11H3.34884C3.15618 11 3 10.8438 3 10.6512V9Z" stroke="currentColor" stroke-width="2" mask="url(#path-2-inside-1)" />
</svg>
