<svg width="18" height="18" viewBox="0 0 18 18" fill="none" xmlns="http://www.w3.org/2000/svg">
<path fill-rule="evenodd" clip-rule="evenodd" d="M9.00818 5.20031C9.54063 5.19383 9.96009 5.28738 10.1583 5.38385L7.43016 5.70522C7.88151 5.33321 8.44306 5.20809 9.00818 5.20031ZM6.59954 7.13259C6.58196 7.46071 6.30328 7.71415 5.97424 7.6998C5.64319 7.68535 5.38653 7.40526 5.40097 7.07421L6.0004 7.10037C5.40097 7.07421 5.40098 7.07393 5.401 7.07365L5.40102 7.07306L5.40108 7.07182L5.40122 7.06904L5.40159 7.0623L5.40279 7.04426C5.40383 7.03023 5.40538 7.01224 5.4077 6.99061C5.41232 6.94738 5.42001 6.88936 5.43275 6.81916C5.45818 6.67904 5.5041 6.48848 5.58711 6.26907C5.75376 5.82859 6.07069 5.2707 6.66689 4.77926L6.66691 4.77924C7.4067 4.16948 8.2756 4.0102 8.99221 4.00042L8.99303 4.00041C9.63063 3.99258 10.257 4.09699 10.6846 4.30542L10.6856 4.3059C11.2538 4.58419 12.6004 5.37152 12.6004 7.10037C12.6004 8.86314 11.4218 9.67354 10.4139 10.3665L10.3919 10.3816C9.92883 10.7001 9.6797 10.9868 9.54087 11.2449C9.40421 11.4989 9.3504 11.7696 9.3504 12.1004C9.3504 12.4317 9.08177 12.7004 8.7504 12.7004C8.41903 12.7004 8.1504 12.4317 8.1504 12.1004C8.1504 11.6298 8.22909 11.1504 8.48407 10.6764C8.73689 10.2064 9.13853 9.7872 9.71199 9.39285C10.7725 8.66358 11.4004 8.17915 11.4004 7.10037C11.4004 6.11707 10.6595 5.6294 10.1583 5.38385L7.43015 5.70524C7.02323 6.04066 6.81611 6.41183 6.70947 6.69369C6.65584 6.83546 6.62781 6.95439 6.61346 7.03346C6.60631 7.07286 6.60264 7.10187 6.60089 7.11827L6.59954 7.13259ZM6.59953 7.13246C6.59947 7.13351 6.59946 7.13365 6.59951 7.13291L6.59954 7.13259L6.59953 7.13246ZM6.59953 7.13246L6.59966 7.13019L6.59974 7.12854L6.59978 7.12757L6.59953 7.13246ZM9.35079 14.075C9.35079 14.4064 9.08216 14.675 8.75079 14.675C8.41942 14.675 8.15079 14.4064 8.15079 14.075C8.15079 13.7436 8.41942 13.475 8.75079 13.475C9.08216 13.475 9.35079 13.7436 9.35079 14.075Z" fill="#E4E5E7"/>
<rect x="1" y="1" width="16" height="16" rx="8" stroke="#E4E5E7" stroke-width="1.2"/>
</svg>
