<svg viewBox="0 0 16 16" fill="none" xmlns="http://www.w3.org/2000/svg">
	<path d="M5 5.50037C5 5.50037 5.045 4.46912 6.04812 3.64224C6.64375 3.1513 7.35906 3.00912 8 3.00037C8.58531 2.99318 9.10844 3.09224 9.42125 3.24474C9.95594 3.50662 11 4.14412 11 5.50037C11 6.92756 10.0881 7.57443 9.05156 8.28724C8.015 9.00006 7.75 9.69912 7.75 10.5004" stroke="#D3D3D3" stroke-width="1.2" stroke-miterlimit="10" stroke-linecap="round" />
	<path d="M7.7499 13.075C8.08127 13.075 8.3499 12.8064 8.3499 12.475C8.3499 12.1436 8.08127 11.875 7.7499 11.875C7.41853 11.875 7.1499 12.1436 7.1499 12.475C7.1499 12.8064 7.41853 13.075 7.7499 13.075Z" fill="#D3D3D3" />
</svg>
